<svg xmlns="http://www.w3.org/2000/svg" x="0px" y="0px"
     width="50" height="50"
     viewBox="0 0 50 50"
     style="fill:#ffffff;"><g id="surface1"><path style=" " d="M 28.8125 1 C 28.609375 1.035156 28.425781 1.136719 28.28125 1.28125 C 27.417969 2.144531 25.488281 2.710938 23.4375 2.90625 C 21.386719 3.101563 19.289063 3 18 3 C 17.640625 2.996094 17.304688 3.183594 17.121094 3.496094 C 16.941406 3.808594 16.941406 4.191406 17.121094 4.503906 C 17.304688 4.816406 17.640625 5.003906 18 5 C 19.191406 5 21.390625 5.085938 23.625 4.875 C 25.449219 4.703125 27.234375 4.21875 28.6875 3.28125 C 30.914063 7.375 36.433594 9.773438 43.71875 9.0625 C 43.179688 10.996094 42.820313 13.023438 43.125 15.125 C 43.46875 17.507813 44.679688 19.890625 46.8125 22.09375 C 43.304688 27.84375 46.09375 34.375 46.09375 34.375 C 46.171875 34.773438 46.480469 35.082031 46.878906 35.160156 C 47.277344 35.242188 47.679688 35.074219 47.90625 34.738281 C 48.132813 34.398438 48.132813 33.960938 47.90625 33.625 C 47.90625 33.625 45.367188 27.449219 48.8125 22.5625 C 49.085938 22.160156 49.035156 21.621094 48.6875 21.28125 C 46.4375 19.191406 45.410156 17.019531 45.09375 14.84375 C 44.777344 12.667969 45.191406 10.457031 45.9375 8.34375 C 46.066406 8.011719 46.003906 7.632813 45.777344 7.355469 C 45.554688 7.078125 45.195313 6.941406 44.84375 7 C 36.824219 8.226563 31.40625 5.40625 29.9375 1.625 C 29.773438 1.210938 29.351563 0.953125 28.90625 1 C 28.875 1 28.84375 1 28.8125 1 Z M 24.65625 7.9375 C 23.832031 7.996094 23.007813 8.300781 22.3125 8.84375 L 17.59375 12.53125 C 17.574219 12.539063 17.550781 12.550781 17.53125 12.5625 C 16.972656 12.523438 16.394531 12.515625 15.8125 12.5 C 14.714844 12.472656 13.621094 12.476563 12.6875 12.59375 C 12.21875 12.652344 11.796875 12.75 11.40625 12.875 C 11.015625 13 10.648438 13.128906 10.3125 13.53125 C 8.5 15.699219 7.550781 18.460938 6.21875 21.3125 C 5.261719 23.363281 5.046875 26.402344 4.59375 29.375 C 4.140625 32.347656 3.414063 35.148438 2.28125 36.28125 C 1.882813 36.679688 1.882813 37.320313 2.28125 37.71875 C 2.679688 38.117188 3.320313 38.117188 3.71875 37.71875 C 5.585938 35.851563 6.128906 32.738281 6.59375 29.6875 C 7.058594 26.636719 7.382813 23.542969 8.03125 22.15625 C 9.398438 19.226563 10.355469 16.644531 11.8125 14.875 C 11.84375 14.863281 11.925781 14.816406 12.03125 14.78125 C 12.238281 14.714844 12.550781 14.640625 12.9375 14.59375 C 13.710938 14.496094 14.75 14.472656 15.78125 14.5 C 16.8125 14.527344 17.855469 14.613281 18.6875 14.71875 C 19.519531 14.824219 20.242188 15.046875 20.15625 15 L 25.84375 19.28125 C 25.886719 19.324219 25.894531 19.335938 25.9375 19.375 C 26.671875 20.050781 27.375 20.527344 27.625 20.78125 C 27.757813 20.914063 27.730469 20.960938 27.71875 20.90625 C 27.710938 20.921875 27.695313 20.933594 27.65625 21 C 27.449219 21.351563 26.664063 22.152344 25.78125 22.375 C 24.898438 22.597656 23.828125 22.480469 22.3125 20.75 C 22.171875 20.59375 21.988281 20.484375 21.78125 20.4375 L 17.59375 19.46875 C 17.183594 19.375 16.757813 19.550781 16.53125 19.90625 L 14.40625 23.375 C 14.183594 23.675781 14.144531 24.078125 14.3125 24.414063 C 14.480469 24.753906 14.820313 24.96875 15.195313 24.972656 C 15.570313 24.976563 15.917969 24.769531 16.09375 24.4375 L 17.84375 21.5625 L 18.25 21.65625 C 18.246094 21.808594 18.28125 21.957031 18.34375 22.09375 C 18.34375 22.09375 21.550781 28.863281 17.15625 33.9375 C 16.792969 34.359375 16.84375 34.996094 17.265625 35.359375 C 17.6875 35.722656 18.324219 35.671875 18.6875 35.25 C 22.886719 30.394531 21.339844 24.460938 20.53125 22.21875 L 21.21875 22.375 C 22.328125 23.496094 23.492188 24.097656 24.5625 24.3125 C 23.65625 25.789063 23.6875 27.746094 24.8125 29.1875 C 24.824219 29.1875 24.832031 29.1875 24.84375 29.1875 C 25.464844 29.980469 26.332031 30.410156 27.25 30.625 C 26.457031 32.078125 26.554688 33.933594 27.625 35.3125 C 29.078125 37.15625 31.773438 37.515625 33.625 36.0625 L 36.875 33.53125 C 35.714844 35.300781 33.957031 37.273438 31.40625 39.1875 C 26.917969 42.554688 24.464844 43.429688 22.34375 44.03125 C 20.222656 44.632813 18.234375 45.007813 15.375 47.21875 C 14.941406 47.5625 14.875 48.195313 15.21875 48.625 C 15.5625 49.058594 16.195313 49.125 16.625 48.78125 C 19.234375 46.761719 20.675781 46.566406 22.90625 45.9375 C 25.136719 45.308594 27.949219 44.292969 32.59375 40.8125 C 36.734375 37.707031 38.960938 34.292969 40.03125 31.75 C 40.128906 31.507813 40.128906 31.242188 40.03125 31 C 41.632813 29.511719 41.875 27.003906 40.5 25.25 C 39.878906 24.453125 39.011719 24.027344 38.09375 23.8125 C 38.882813 22.359375 38.796875 20.503906 37.71875 19.125 C 37.011719 18.21875 36 17.710938 34.9375 17.5625 C 35.445313 16.179688 35.3125 14.582031 34.34375 13.34375 C 33.085938 11.734375 30.949219 11.339844 29.15625 12.125 C 29.140625 11.226563 28.902344 10.320313 28.3125 9.5625 C 27.589844 8.636719 26.558594 8.101563 25.46875 7.96875 C 25.195313 7.933594 24.929688 7.917969 24.65625 7.9375 Z M 24.78125 9.90625 C 25.515625 9.851563 26.265625 10.160156 26.75 10.78125 C 27.527344 11.777344 27.339844 13.222656 26.34375 14 L 24.25 15.59375 L 21.21875 13.3125 C 21.179688 13.277344 21.136719 13.246094 21.09375 13.21875 C 20.835938 13.082031 20.585938 12.972656 20.3125 12.90625 L 23.53125 10.40625 C 23.902344 10.113281 24.339844 9.941406 24.78125 9.90625 Z M 30.71875 13.65625 C 31.488281 13.601563 32.269531 13.90625 32.78125 14.5625 C 33.601563 15.609375 33.421875 17.117188 32.375 17.9375 L 31.96875 18.25 C 31.890625 18.304688 31.792969 18.316406 31.71875 18.375 L 29.53125 20.09375 C 29.40625 19.824219 29.242188 19.589844 29.0625 19.40625 C 28.515625 18.847656 27.863281 18.453125 27.21875 17.84375 C 27.199219 17.820313 27.179688 17.800781 27.15625 17.78125 L 25.9375 16.875 L 27.59375 15.5625 L 29.40625 14.15625 C 29.800781 13.847656 30.257813 13.691406 30.71875 13.65625 Z M 34.21875 19.5 C 34.355469 19.488281 34.488281 19.484375 34.625 19.5 C 35.203125 19.570313 35.769531 19.847656 36.15625 20.34375 C 36.933594 21.339844 36.746094 22.753906 35.75 23.53125 L 34.5 24.5 L 29.59375 28.34375 C 29.585938 28.351563 29.570313 28.335938 29.5625 28.34375 C 28.566406 29.105469 27.179688 28.953125 26.40625 27.96875 C 25.625 26.96875 25.785156 25.53125 26.78125 24.75 L 29.375 22.71875 L 29.46875 22.6875 C 29.546875 22.65625 29.621094 22.613281 29.6875 22.5625 L 33.03125 19.9375 C 33.390625 19.679688 33.808594 19.535156 34.21875 19.5 Z M 36.96875 25.625 C 37.113281 25.613281 37.261719 25.605469 37.40625 25.625 C 37.980469 25.695313 38.546875 26 38.9375 26.5 C 39.710938 27.488281 39.507813 28.871094 38.53125 29.65625 L 32.375 34.46875 C 31.375 35.253906 29.976563 35.09375 29.1875 34.09375 C 28.410156 33.09375 28.59375 31.660156 29.59375 30.875 L 30.8125 29.90625 L 30.84375 29.90625 L 35.75 26.09375 C 36.121094 25.800781 36.539063 25.65625 36.96875 25.625 Z "></path></g></svg>