<svg xmlns="http://www.w3.org/2000/svg" x="0px" y="0px"
     width="50" height="50"
     viewBox="0 0 252 252"
     style="fill:#000000;"><g fill="none" fill-rule="nonzero" stroke="none" stroke-width="1" stroke-linecap="none" stroke-linejoin="miter" stroke-miterlimit="10" stroke-dasharray="" stroke-dashoffset="0" font-family="none" font-weight="none" font-size="none" text-anchor="none" style="mix-blend-mode: normal"><path d="M0,252v-252h252v252z" fill="none" stroke="none" stroke-linecap="butt"></path><g><g id="surface1"><path d="M193.13438,146.2043c-2.9039,-6.15234 -7.85039,-9.62226 -13.21523,-11.19726c-1.77187,-0.86133 -4.30664,-0.73828 -7.0875,-0.2707c5.68477,-8.34258 6.39844,-21.41016 -0.98437,-28.79297c-4.25742,-4.25742 -9.89297,-6.32461 -15.50391,-6.25078c6.37383,-8.3918 5.80781,-20.475 -1.8457,-28.12852c-9.86836,-9.86836 -21.28711,-6.07852 -29.67891,0.17227c-0.02461,-5.46328 -2.1164,-10.92656 -6.25078,-15.06094c-8.36719,-8.36719 -22.02539,-8.36719 -30.36797,0l-6.3,6.32461h-56.7c-10.38515,0 -18.9,8.51485 -18.9,18.9v77.22422c0,1.575 0.19688,3.02695 0.54141,4.40507c0.34453,10.63125 4.725,20.05664 13.09219,28.42383l45.675,41.1961c8.73632,8.76094 20.32734,12.94453 31.79531,12.55078c10.5082,-0.34453 20.91797,-4.52812 28.94062,-12.55078l4.87265,-4.87266l0.09844,0.09844l56.9461,-56.94609c6.61992,-6.61993 8.88398,-16.75899 4.87265,-25.22461z" fill="#ffffff" stroke="none" stroke-linecap="butt"></path><path d="M37.8,69.3v37.8l37.8,-37.8z" fill="#ffffff" stroke="none" stroke-linecap="butt"></path><path d="M88.81523,28.17773l5.80781,-5.80781c7.82578,-8.26875 17.79258,-12.89531 30.07266,-12.89531c11.07422,0 21.06563,4.30664 28.69453,11.19727c4.47891,-1.575 9.22852,-2.60859 14.24883,-2.60859c21.92695,0 39.81797,16.48828 42.42656,37.72617c15.45469,6.49688 26.28281,21.7793 26.28281,39.59648c0,7.85039 -2.26406,15.13477 -5.95547,21.48398c3.6914,6.32461 5.95547,13.60899 5.95547,21.45938c0,12.00937 -4.92187,22.86211 -12.84609,30.63868l-4.4543,4.15898" fill="none" stroke="#000000" stroke-linecap="round"></path><path d="M88.2,65.6086v-8.95781l-6.3,6.34922l-44.1,44.1v8.9086z" fill="#000000" stroke="none" stroke-linecap="butt"></path><path d="M193.13438,146.2043c-2.9039,-6.15234 -7.85039,-9.62226 -13.21523,-11.19726c-0.93516,-0.46758 -2.0918,-0.63985 -3.37148,-0.63985c-1.15664,0 -2.41172,0.14766 -3.71602,0.36914c5.68477,-8.34258 6.39844,-21.41016 -0.98437,-28.79297c-4.1836,-4.18359 -9.6961,-6.25078 -15.18398,-6.25078c-0.09844,0 -0.22149,0 -0.31993,0c6.37383,-8.3918 5.83243,-20.475 -1.8457,-28.12852c-4.33125,-4.35586 -9.00703,-6.0539 -13.55977,-6.0539c-5.7832,0 -11.41875,2.73164 -16.11914,6.22617c-0.02461,-5.46328 -2.0918,-10.92656 -6.25078,-15.06094c-4.1836,-4.1836 -9.67149,-6.27539 -15.18399,-6.27539c-5.5125,0 -11.00039,2.0918 -15.18398,6.25078l-6.3,6.34922h-56.7c-10.38515,0 -18.9,8.51485 -18.9,18.9v77.22422c0,1.575 0.19688,3.02695 0.54141,4.40507c0.34453,10.63125 4.725,20.05664 13.09219,28.42383l45.675,41.1961c8.3918,8.3918 19.36757,12.57539 30.36797,12.57539c0.46758,0 0.95977,0 1.42735,-0.02461c10.5082,-0.34453 20.91797,-4.52812 28.94062,-12.55078l4.87265,-4.87266l0.09844,0.09844l56.9461,-56.94609c6.61992,-6.61993 8.88398,-16.75899 4.87265,-25.22461zM183.80742,166.97461l-52.4918,52.4918l-0.09844,-0.09844l-9.32695,9.32695c-6.59531,6.59531 -15.38086,10.40977 -24.6832,10.72969c-0.41836,0 -0.81211,0 -1.23047,0c-9.76992,0 -18.97383,-3.81445 -25.91367,-10.72969l-0.09844,-0.12305l-0.12305,-0.09844l-45.55195,-41.07305c-7.21055,-7.25977 -10.85273,-15.13477 -11.14805,-24.06797l-0.04922,-0.63984l-0.12305,-0.61523c-0.2461,-1.00899 -0.36914,-1.96875 -0.36914,-2.95312v-77.22422c0,-6.93984 5.66016,-12.6 12.6,-12.6h59.3086l1.87031,-1.87031l6.27539,-6.32461c2.85469,-2.83008 6.66914,-4.40508 10.72969,-4.40508c4.06055,0 7.875,1.575 10.72969,4.40508c2.80547,2.83008 4.38047,6.59531 4.40508,10.65586c0,0 -0.59063,5.80781 -4.92187,10.13906l-12.79687,12.99375l4.4543,4.4543l20.42578,-20.42578l2.9039,-2.14102c3.05156,-2.28867 7.65352,-4.97109 12.35391,-4.97109c3.29765,0 6.27539,1.37812 9.10547,4.2082c5.29102,5.29102 5.83243,13.83047 1.27969,19.85977l-2.28867,3.07617l-21.7793,21.80391l4.4543,4.4543l15.25781,-15.28242c5.63555,-4.30664 9.67148,-3.9375 9.67148,-3.9375c4.08516,0 7.89961,1.55039 10.72969,4.38047c5.14336,5.14336 4.28203,14.88868 0.2461,20.79493l-4.725,6.96445l-8.9332,8.9332l4.4543,4.4543l7.50586,-7.50586c3.17461,-2.85469 7.94882,-3.07617 7.94882,-3.07617c1.10743,-0.17227 1.99336,-0.2707 2.68243,-0.2707c0.36914,0 0.59062,0.02461 0.66445,0.02461l0.44297,0.19688l0.49219,0.14766c4.30664,1.27969 7.43203,3.91289 9.27773,7.85039c2.78086,5.85703 1.32891,13.1414 -3.61758,18.08789z" fill="#000000" stroke="none" stroke-linecap="butt"></path><path d="M136.2375,120.70898l-4.4543,4.4543c-1.23047,1.20586 -3.22383,1.20586 -4.4543,0c-1.23047,-1.23047 -1.23047,-3.24844 0,-4.4543l4.4543,-4.4543c1.23047,-1.23047 3.22383,-1.23047 4.4543,0c1.23047,1.20586 1.23047,3.22383 0,4.4543z" fill="#000000" stroke="none" stroke-linecap="butt"></path><path d="M162.76641,147.18867l-4.4543,4.4543c-1.23047,1.23047 -3.22382,1.23047 -4.4543,0c-1.23047,-1.23047 -1.23047,-3.22383 0,-4.4543l4.4543,-4.4543c1.23047,-1.23047 3.22383,-1.23047 4.4543,0c1.23047,1.23047 1.23047,3.22383 0,4.4543z" fill="#000000" stroke="none" stroke-linecap="butt"></path><path d="M109.80703,94.84453l-4.4543,4.4543c-1.20586,1.20586 -3.22382,1.20586 -4.4543,0c-1.20586,-1.23047 -1.20586,-3.24844 0,-4.4543l4.4543,-4.4543c1.23047,-1.23047 3.24844,-1.23047 4.4543,0c1.23047,1.20586 1.23047,3.22383 0,4.4543z" fill="#000000" stroke="none" stroke-linecap="butt"></path></g></g></g></svg>