<svg xmlns="http://www.w3.org/2000/svg" x="0px" y="0px"
     width="50" height="50"
     viewBox="0 0 252 252"
     style="fill:#000000;"><g fill="none" fill-rule="nonzero" stroke="none" stroke-width="1" stroke-linecap="butt" stroke-linejoin="miter" stroke-miterlimit="10" stroke-dasharray="" stroke-dashoffset="0" font-family="none" font-weight="none" font-size="none" text-anchor="none" style="mix-blend-mode: normal"><path d="M0,252v-252h252v252z" fill="none"></path><g><g id="surface1"><path d="M126,242.55c-64.25508,0 -116.55,-52.29492 -116.55,-116.55c0,-64.25508 52.29492,-116.55 116.55,-116.55c64.25508,0 116.55,52.29492 116.55,116.55c0,64.25508 -52.29492,116.55 -116.55,116.55z" fill="#ffffff"></path><path d="M126,12.6c62.53242,0 113.4,50.86758 113.4,113.4c0,62.53242 -50.86758,113.4 -113.4,113.4c-62.53242,0 -113.4,-50.86758 -113.4,-113.4c0,-62.53242 50.86758,-113.4 113.4,-113.4M126,6.3c-66.10078,0 -119.7,53.59922 -119.7,119.7c0,66.10078 53.59922,119.7 119.7,119.7c66.10078,0 119.7,-53.59922 119.7,-119.7c0,-66.10078 -53.59922,-119.7 -119.7,-119.7z" fill="#000000"></path><path d="M126,229.95c-57.31523,0 -103.95,-46.63477 -103.95,-103.95c0,-57.31523 46.63477,-103.95 103.95,-103.95c57.31523,0 103.95,46.63477 103.95,103.95c0,57.31523 -46.63477,103.95 -103.95,103.95z" fill="#ffffff"></path><path d="M126,25.2c55.56797,0 100.8,45.23203 100.8,100.8c0,55.56797 -45.23203,100.8 -100.8,100.8c-55.56797,0 -100.8,-45.23203 -100.8,-100.8c0,-55.56797 45.23203,-100.8 100.8,-100.8M126,18.9c-59.16094,0 -107.1,47.93906 -107.1,107.1c0,59.16094 47.93906,107.1 107.1,107.1c59.16094,0 107.1,-47.93906 107.1,-107.1c0,-59.16094 -47.93906,-107.1 -107.1,-107.1z" fill="#cccccc"></path><path d="M226.8,138.6l-31.5,-12.6l31.5,-13.04297z" fill="#cccccc"></path><path d="M25.2,138.6l31.5,-12.6l-31.5,-13.04297z" fill="#cccccc"></path><path d="M112.95703,25.2l13.04297,31.5l12.6,-31.5z" fill="#cccccc"></path><path d="M112.95703,226.8l13.04297,-31.5l12.6,31.5z" fill="#cccccc"></path><path d="M109.41328,109.41328l71.83476,-38.66133l-38.66132,71.83477l-71.83477,38.66132z" fill="#ffffff"></path><path d="M173.4961,78.50391l-33.24727,61.74492l-61.74492,33.24727l33.24726,-61.74493l61.74493,-33.24726M189,63l-81.9,44.1l-44.1,81.9l81.9,-44.1z" fill="#000000"></path><path d="M107.86289,112.31719l31.81992,31.81992l-68.93086,37.11094z" fill="#cccccc"></path><path d="M108.62578,117.53438l25.83984,25.83985l-55.96172,30.12188l30.12187,-55.96172M107.1,107.1l-44.1,81.9l81.9,-44.1z" fill="#000000"></path></g></g></g></svg>