<svg xmlns="http://www.w3.org/2000/svg" x="0px" y="0px"
     width="50" height="50"
     viewBox="0 0 252 252"
     style="fill:#000000;"><g fill="none" fill-rule="nonzero" stroke="none" stroke-width="1" stroke-linecap="butt" stroke-linejoin="miter" stroke-miterlimit="10" stroke-dasharray="" stroke-dashoffset="0" font-family="none" font-weight="none" font-size="none" text-anchor="none" style="mix-blend-mode: normal"><path d="M0,252v-252h252v252z" fill="none"></path><g><g id="surface1"><path d="M126,229.95c-43.43555,0 -78.75,-35.31445 -78.75,-78.75c0,-11.07422 2.31328,-21.85313 6.86602,-32.06602l2.68242,-5.98007l-6.34922,1.67344c-4.70039,1.23047 -9.30235,1.8457 -13.73203,1.8457c-6.89063,0 -16.63594,-1.575 -23.8957,-8.95781c-15.70078,-15.94687 -11.73867,-45.9457 8.83477,-66.86367c11.73867,-11.96015 26.62735,-18.80156 40.80235,-18.80156c9.94219,0 18.53086,3.3961 24.83086,9.79453c9.7207,9.89297 12.23086,25.51992 6.74297,41.81132l-2.14101,6.32461l6.22617,-2.3625c9.05625,-3.4207 18.45703,-5.16797 27.88242,-5.16797c9.42539,0 18.77695,1.72266 27.8332,5.16797l6.22617,2.33789l-2.14102,-6.3c-5.48789,-16.2668 -2.95312,-31.89375 6.79219,-41.78672c6.3,-6.42305 14.88868,-9.81914 24.80625,-9.81914c14.19961,0 29.06368,6.86602 40.82695,18.80156c20.57344,20.91797 24.53555,50.9168 8.83477,66.86367c-5.73398,5.85703 -14.61797,9.05625 -25.00313,9.05625c-4.10977,0 -8.29336,-0.49219 -12.45235,-1.47656l-6.15234,-1.45195l2.53477,5.7832c4.40507,10.04062 6.64453,20.67188 6.64453,31.57383c0,43.43555 -35.31445,78.75 -78.75,78.75z" fill="#000000"></path><path d="M189.54141,25.2c13.33828,0 27.39023,6.49687 38.56289,17.8418c19.36758,19.71211 23.32969,47.71758 8.83477,62.4586c-5.16797,5.2418 -13.23984,8.12109 -22.76367,8.12109c-3.86367,0 -7.80117,-0.46757 -11.71406,-1.37812l-12.30469,-2.9039l5.06953,11.5664c4.23281,9.62227 6.37383,19.81055 6.37383,30.29414c0,41.68828 -33.91172,75.6 -75.6,75.6c-41.68828,0 -75.6,-33.91172 -75.6,-75.6c0,-10.63125 2.21485,-20.96719 6.59531,-30.76172l5.36485,-12.00937l-12.72305,3.34687c-4.40507,1.15664 -8.76094,1.74726 -12.91992,1.74726c-6.3,0 -15.13477,-1.40273 -21.65625,-8.02265c-14.49492,-14.74102 -10.53281,-42.74648 8.83477,-62.4586c11.17265,-11.34492 25.22461,-17.8418 38.56289,-17.8418c9.08086,0 16.88203,3.07617 22.5914,8.85937c8.85938,9.03164 11.09883,23.45273 5.98008,38.61211l-4.25742,12.62461l12.47695,-4.725c8.68711,-3.29766 17.69414,-4.9711 26.75039,-4.9711c9.03164,0 18.01406,1.67344 26.70117,4.94648l12.47695,4.725l-4.25742,-12.62461c-5.11875,-15.13477 -2.85469,-29.55586 6.0293,-38.5875c5.70937,-5.80781 13.51055,-8.85937 22.59141,-8.85937M189.54141,18.9c-10.36055,0 -19.9582,3.49453 -27.09493,10.72969c-10.97578,11.19727 -13.1414,28.32539 -7.50586,45.03516c-9.00703,-3.4207 -18.72773,-5.36485 -28.94062,-5.36485c-10.21289,0 -19.9582,1.96875 -28.98984,5.38945c5.63555,-16.70977 3.54375,-33.8625 -7.48125,-45.03516c-7.11211,-7.25976 -16.70977,-10.7543 -27.07031,-10.7543c-14.4457,0 -30.34336,6.8168 -43.0418,19.73672c-21.8039,22.17305 -25.93828,53.91914 -8.83476,71.29336c6.76757,6.86602 16.11914,9.89297 26.13515,9.89297c4.77422,0 9.67148,-0.68906 14.51953,-1.96875c-4.55274,10.18828 -7.13672,21.45938 -7.13672,33.3457c0,45.23203 36.66797,81.9 81.9,81.9c45.23203,0 81.9,-36.66797 81.9,-81.9c0,-11.68945 -2.48555,-22.76367 -6.89062,-32.8289c4.30664,1.00898 8.78555,1.55039 13.16602,1.55039c10.40977,0 20.40117,-3.02695 27.24258,-9.9914c17.10351,-17.37422 12.96914,-49.14492 -8.83477,-71.29336c-12.69844,-12.91993 -28.5961,-19.73672 -43.0418,-19.73672z" fill="#000000"></path><path d="M176.4,163.8c-1.64883,0 -3.19922,0.34453 -4.62656,0.91055c6.64453,-14.10117 10.92656,-32.77969 10.92656,-41.86055c0,-15.65156 -12.69844,-28.35 -28.35,-28.35c-15.65156,0 -28.35,12.69844 -28.35,28.35c0,-15.65156 -12.69844,-28.35 -28.35,-28.35c-15.65156,0 -28.35,12.69844 -28.35,28.35c0,9.08086 4.28203,27.75938 10.92656,41.86055c-1.42734,-0.56601 -2.97773,-0.91055 -4.62656,-0.91055c-6.96445,0 -12.6,5.63555 -12.6,12.6c-0.19687,19.36758 19.53985,50.4 63,50.4c43.46016,0 62.28633,-30.78633 63,-50.4c0,-6.96445 -5.63555,-12.6 -12.6,-12.6z" fill="#ffffff"></path><path d="M144.9,182.7c0,-6.96445 -8.46563,-12.6 -18.9,-12.6c-10.43438,0 -18.9,5.63555 -18.9,12.6c0,6.96445 8.46563,12.6 18.9,12.6c10.43437,0 18.9,-5.63555 18.9,-12.6z" fill="#000000"></path><path d="M132.3,179.55c0,-1.74727 -2.83008,-3.15 -6.3,-3.15c-3.46992,0 -6.3,1.40273 -6.3,3.15c0,1.74727 2.83008,3.15 6.3,3.15c3.46992,0 6.3,-1.40273 6.3,-3.15z" fill="#ffffff"></path><path d="M151.2,144.9c0,-10.43438 -4.23281,-18.9 -9.45,-18.9c-5.21719,0 -9.45,8.46562 -9.45,18.9c0,10.43437 4.23281,18.9 9.45,18.9c5.21719,0 9.45,-8.46562 9.45,-18.9z" fill="#000000"></path><path d="M119.7,144.9c0,-10.43438 -4.23281,-18.9 -9.45,-18.9c-5.21719,0 -9.45,8.46562 -9.45,18.9c0,10.43437 4.23281,18.9 9.45,18.9c5.21719,0 9.45,-8.46562 9.45,-18.9z" fill="#000000"></path></g></g></g></svg>