<svg xmlns="http://www.w3.org/2000/svg" x="0px" y="0px"
     width="50" height="50"
     viewBox="0 0 252 252"
     style="fill:#000000;"><g fill="none" fill-rule="nonzero" stroke="none" stroke-width="1" stroke-linecap="butt" stroke-linejoin="miter" stroke-miterlimit="10" stroke-dasharray="" stroke-dashoffset="0" font-family="none" font-weight="none" font-size="none" text-anchor="none" style="mix-blend-mode: normal"><path d="M0,252v-252h252v252z" fill="none"></path><g><g id="surface1"><path d="M248.85,117.16523c-6.22617,-12.55078 -16.14375,-19.51523 -28.35,-19.51523h-9.45v-18.9h9.45c16.29141,0 28.15312,16.11914 28.35,38.41523z" fill="#ffffff"></path><path d="M220.5,81.9c11.34492,0 20.27812,9.10547 23.69883,22.88672c-6.32461,-6.69375 -14.39648,-10.28672 -23.69883,-10.28672h-6.3v-12.6h6.3M220.5,75.6h-12.6v25.2h12.6c15.33164,0 25.4461,12.23086 29.80195,29.60508c1.00898,-4.03594 1.69805,-8.24414 1.69805,-12.69844c0,-23.60039 -12.62461,-42.10664 -31.5,-42.10664z" fill="#000000"></path><path d="M3.15,117.16523c0.19687,-22.29609 12.0586,-38.41523 28.35,-38.41523h9.45v18.9h-9.45c-12.20625,0 -22.12383,6.96445 -28.35,19.51523z" fill="#ffffff"></path><path d="M37.8,81.9v12.6h-6.3c-9.30234,0 -17.37422,3.59297 -23.69883,10.28672c3.4207,-13.78125 12.35391,-22.88672 23.69883,-22.88672h6.3M44.1,75.6h-12.6c-18.87539,0 -31.5,18.50625 -31.5,42.10664c0,4.4543 0.68906,8.6625 1.69805,12.69844c4.35586,-17.37422 14.47031,-29.60508 29.80195,-29.60508h12.6z" fill="#000000"></path><path d="M22.05,152.82422c-11.61563,-5.83243 -18.9,-19.12149 -18.9,-35.11758c0,-0.2461 0,-0.46758 0,-0.68906c4.42969,8.17031 10.95117,14.27344 18.9,17.47265z" fill="#000000"></path><path d="M7.53047,128.3625c3.32226,3.44531 7.13672,6.20156 11.36953,8.19492v10.53281c-5.5125,-4.33125 -9.49922,-10.87734 -11.36953,-18.72773M1.77188,104.76211c-1.0582,4.10977 -1.77187,8.3918 -1.77187,12.94453c0,19.88437 10.4836,35.01914 25.2,39.79336v-25.2c-11.32031,-3.71602 -19.88437,-13.68281 -23.42812,-27.53789z" fill="#000000"></path><path d="M126,242.55c-24.46172,0 -91.35,-51.77812 -91.35,-91.35v-118.05117c6.5461,-4.38047 38.46445,-23.69883 91.35,-23.69883c52.88555,0 84.80391,19.31836 91.35,23.69883v118.05117c0,40.58086 -66.22383,91.35 -91.35,91.35z" fill="#ffffff"></path><path d="M126,12.6c48.97266,0 79.58672,16.83281 88.2,22.24687v116.35313c0,38.19375 -64.59961,88.2 -88.2,88.2c-22.98515,0 -88.2,-51.01523 -88.2,-88.2v-116.35312c8.56406,-5.46328 38.98125,-22.24687 88.2,-22.24687M126,6.3c-61.22813,0 -94.5,25.2 -94.5,25.2c0,0 0,77.64258 0,119.7c0,42.05742 68.90625,94.5 94.5,94.5c25.59375,0 94.5,-51.60586 94.5,-94.5c0,-42.89414 0,-119.7 0,-119.7c0,0 -33.27187,-25.2 -94.5,-25.2z" fill="#000000"></path><path d="M126,239.4v-226.8c-49.21875,0 -79.63594,16.7836 -88.2,22.24687v116.35313c0,37.18477 65.21485,88.2 88.2,88.2z" fill="#cccccc"></path><path d="M229.95,134.51485c7.94883,-3.22383 14.47031,-9.32695 18.9,-17.49727c0,0.22148 0,0.46758 0,0.68906c0,16.0207 -7.28438,29.28515 -18.9,35.11758z" fill="#000000"></path><path d="M244.46953,128.3625c-1.87031,7.85039 -5.85703,14.39648 -11.36953,18.72773v-10.53281c4.23281,-1.99336 8.04727,-4.74961 11.36953,-8.19492M250.22813,104.76211c-3.54375,13.85508 -12.10781,23.82188 -23.42813,27.53789v25.2c14.71641,-4.77422 25.2,-19.88438 25.2,-39.79336c0,-4.55273 -0.71367,-8.83477 -1.77187,-12.94453z" fill="#000000"></path><path d="M61.89258,91.35c3.12539,-5.02031 9.54844,-12.6 20.00742,-12.6c10.45898,0 16.88203,7.57969 20.00742,12.6z" fill="#000000"></path><path d="M81.9,81.9c5.98008,0 10.4836,3.00235 13.6336,6.3h-27.26719c3.15,-3.29765 7.65351,-6.3 13.63359,-6.3M81.9,75.6c-17.69414,0 -25.2,18.9 -25.2,18.9c0,0 16.0207,0 25.2,0c9.1793,0 25.2,0 25.2,0c0,0 -7.50586,-18.9 -25.2,-18.9z" fill="#000000"></path><path d="M126,179.55c-27.48867,0 -39.86719,-18.06328 -44.69062,-28.42383c8.95781,3.86368 25.39687,9.52383 44.69063,9.52383c19.29375,0 35.73281,-5.66015 44.69062,-9.52383c-4.82344,10.36055 -17.20195,28.42383 -44.69062,28.42383z" fill="#000000"></path><path d="M88.4461,157.25391c9.59765,3.29765 22.76367,6.54609 37.5539,6.54609c14.79023,0 27.95625,-3.24844 37.55391,-6.54609c-6.27539,9.05625 -17.71875,19.14609 -37.55391,19.14609c-19.83515,0 -31.27852,-10.08984 -37.5539,-19.14609M176.4,144.9c0,0 -22.24688,12.6 -50.4,12.6c-28.15313,0 -50.4,-12.6 -50.4,-12.6c0,0 9.67148,37.8 50.4,37.8c40.72852,0 50.4,-37.8 50.4,-37.8z" fill="#000000"></path><path d="M150.09258,91.35c3.12539,-5.02031 9.54844,-12.6 20.00742,-12.6c10.45898,0 16.88203,7.57969 20.00742,12.6z" fill="#000000"></path><path d="M170.1,81.9c5.98008,0 10.4836,3.00235 13.6336,6.3h-27.26719c3.15,-3.29765 7.65351,-6.3 13.63359,-6.3M170.1,75.6c-17.69414,0 -25.2,18.9 -25.2,18.9c0,0 16.0207,0 25.2,0c9.1793,0 25.2,0 25.2,0c0,0 -7.50586,-18.9 -25.2,-18.9z" fill="#000000"></path></g></g></g></svg>