<svg xmlns="http://www.w3.org/2000/svg" x="0px" y="0px"
     width="50" height="50"
     viewBox="0 0 252 252"
     style="fill:#000000;"><g fill="none" fill-rule="nonzero" stroke="none" stroke-width="none" stroke-linecap="butt" stroke-linejoin="miter" stroke-miterlimit="10" stroke-dasharray="" stroke-dashoffset="0" font-family="none" font-weight="none" font-size="none" text-anchor="none" style="mix-blend-mode: normal"><path d="M0,252v-252h252v252z" fill="none" stroke="none" stroke-width="1"></path><g><g id="surface1"><path d="M91.35,122.85v-18.9h12.8707c0.5168,3.3961 1.99336,8.83477 6.20156,13.04297c3.19922,3.24844 7.38281,5.14336 12.42773,5.68476v0.17227z" fill="#000000" stroke="none" stroke-width="1"></path><path d="M101.63672,107.1c0.88594,3.6668 2.73164,8.29336 6.54609,12.13242c0.17227,0.14766 0.31992,0.31993 0.49219,0.46758h-14.175v-12.6h7.13672M107.1,100.8h-18.9v25.2h37.8v-6.3c-18.97383,0 -18.9,-18.9 -18.9,-18.9z" fill="#000000" stroke="none" stroke-width="1"></path><path d="M25.2,97.65c-0.83672,0 -19.93359,-0.36914 -21.90234,-18.9h15.60234c3.49453,0 5.63555,-1.42734 6.79219,-2.6332c1.13203,-1.15664 1.77188,-2.48555 2.16562,-3.6668h6.79219v25.2z" fill="#ffffff" stroke="none" stroke-width="1"></path><path d="M31.5,75.6v18.9h-6.3c-1.67344,0 -14.74102,-0.41836 -18.1125,-12.6h11.8125c4.60195,0 7.45664,-1.94414 9.05625,-3.56836c0.83672,-0.86133 1.50117,-1.79648 1.99336,-2.73164h1.55039M37.8,69.3h-12.6c0,0 0.14766,6.3 -6.3,6.3c-6.44765,0 -18.9,-0.02461 -18.9,-0.02461c0,25.2 25.2,25.22461 25.2,25.22461h12.6z" fill="#000000" stroke="none" stroke-width="1"></path><path d="M144.9,88.2v31.5c0,13.85508 -11.34492,25.2 -25.2,25.2h-37.8" fill="none" stroke="#000000" stroke-width="12.6"></path><path d="M47.25,53.55v-6.3h14.4457l3.15,3.15l-3.15,3.15z" fill="#000000" stroke="none" stroke-width="1"></path><path d="M63,44.1h-18.9v12.6h18.9l6.3,-6.3z" fill="#000000" stroke="none" stroke-width="1"></path><path d="M211.05,53.55v-6.3h14.4457l3.15,3.15l-3.15,3.15z" fill="#000000" stroke="none" stroke-width="1"></path><path d="M226.8,44.1h-18.9v12.6h18.9l6.3,-6.3z" fill="#000000" stroke="none" stroke-width="1"></path><path d="M238.3418,64.0336h10.5082v27.2918h-10.5082z" fill="#000000" stroke="none" stroke-width="1"></path><path d="M245.7,67.1836v20.9918h-4.2082v-20.9918h4.2082M252,60.8836h-16.8082v33.5918h16.8082z" fill="#000000" stroke="none" stroke-width="1"></path><path d="M55.00195,217.35c-1.10742,0 -2.21485,-0.14765 -3.32227,-0.41836l-38.24297,-8.6625c-3.49453,-0.86133 -6.47227,-3.07617 -8.34258,-6.20156c-1.87031,-3.12539 -2.41172,-6.79219 -1.52578,-10.31133l24.78164,-88.4707v-40.28555c0,-5.21719 4.23281,-9.45 9.45,-9.45h204.75v44.1h-138.23086l-6.3,50.4h-0.91055c-9.15469,0 -17.12812,6.20156 -19.34297,15.11016l-9.54844,43.95234c-1.50117,5.98008 -6.93984,10.2375 -13.21523,10.2375z" fill="#ffffff" stroke="none" stroke-width="1"></path><path d="M239.4,56.7v37.8h-137.86172l-0.68906,5.5125l-5.61094,44.96133c-9.81914,0.7875 -18.1125,7.75195 -20.57344,17.5957l-9.47461,43.68164c-1.18125,4.67578 -5.36484,7.94883 -10.18828,7.94883c-0.83672,0 -1.69805,-0.09844 -2.68242,-0.34453l-38.0707,-8.61328c-2.70703,-0.68906 -4.9957,-2.38711 -6.44766,-4.79883c-1.45195,-2.38711 -1.87031,-5.21719 -1.23047,-7.75195l24.70781,-88.12618l0.22148,-0.83672v-40.72852c0,-3.46992 2.83008,-6.3 6.3,-6.3h201.6M245.7,50.4h-207.9c-6.96445,0 -12.6,5.63555 -12.6,12.6v39.86719l-24.70781,88.12617c-2.23945,8.98243 3.24844,18.1125 12.23086,20.35195l38.19375,8.6625c1.37812,0.31992 2.75625,0.49219 4.08516,0.49219c7.53047,0 14.39648,-5.09414 16.2914,-12.72305l9.52383,-43.85391c1.87031,-7.48125 8.58867,-12.72305 16.29141,-12.72305h3.6914l6.3,-50.4h138.6z" fill="#000000" stroke="none" stroke-width="1"></path><path d="M81.9,66.12539c-1.74727,0 -3.15,-1.40273 -3.15,-3.15v-9.42539h37.8v9.42539c0,1.74727 -1.40273,3.15 -3.15,3.15z" fill="#ffffff" stroke="none" stroke-width="1"></path><path d="M113.4,56.7v6.27539h-31.5v-6.27539h31.5M119.7,50.4h-44.1v12.57539c0,3.46992 2.83008,6.3 6.3,6.3h31.5c3.46992,0 6.3,-2.83008 6.3,-6.3z" fill="#000000" stroke="none" stroke-width="1"></path><path d="M50.4,75.6h195.3v6.3h-195.3z" fill="#000000" stroke="none" stroke-width="1"></path><path d="M245.7,75.6h-195.3v6.3h195.3z" fill="#000000" stroke="none" stroke-width="1"></path><path d="M193.10977,97.65l9.45,-6.3h39.99023v6.3z" fill="#000000" stroke="none" stroke-width="1"></path><path d="M245.7,88.2h-44.1l-18.9,12.6h63z" fill="#000000" stroke="none" stroke-width="1"></path><path d="M51.33516,200.41875l-29.77735,-6.74297c-0.39375,-0.07383 -0.59063,-0.34453 -0.66445,-0.49219c-0.09844,-0.12305 -0.22148,-0.44297 -0.12305,-0.81211l26.775,-94.74609h28.17773l-23.13281,102.00586c-0.12305,0.54141 -0.61523,0.81211 -1.03359,0.81211c-0.07383,0 -0.14766,0 -0.22148,-0.02461z" fill="#ffffff" stroke="none" stroke-width="1"></path><path d="M71.78555,100.77539l-21.8039,96.12422l-25.56914,-5.80781l25.51992,-90.3164h21.85313M79.66055,94.47539h-34.50234l-27.41485,97.03477c-0.63984,2.31328 0.76289,4.70039 3.12539,5.2418l29.75273,6.74297c0.31993,0.07383 0.63985,0.09844 0.93516,0.09844c1.91953,0 3.64219,-1.3043 4.10977,-3.24844z" fill="#000000" stroke="none" stroke-width="1"></path><path d="M44.1,182.7c0,3.46992 -2.83008,6.3 -6.3,6.3c-3.46992,0 -6.3,-2.83008 -6.3,-6.3c0,-3.46992 2.83008,-6.3 6.3,-6.3c3.46992,0 6.3,2.83008 6.3,6.3z" fill="#ffffff" stroke="none" stroke-width="1"></path><path d="M63,113.4c0,3.46992 -2.83008,6.3 -6.3,6.3c-3.49453,0 -6.3,-2.83008 -6.3,-6.3c0,-3.46992 2.80547,-6.3 6.3,-6.3c3.46992,0 6.3,2.83008 6.3,6.3z" fill="#ffffff" stroke="none" stroke-width="1"></path><path d="M53.55,81.9h-6.3c-1.72265,0 -3.15,-1.42734 -3.15,-3.15c0,-1.72265 1.42735,-3.15 3.15,-3.15h6.3c1.72266,0 3.15,1.42735 3.15,3.15c0,1.72266 -1.42734,3.15 -3.15,3.15z" fill="#000000" stroke="none" stroke-width="1"></path></g></g></g></svg>