<svg xmlns="http://www.w3.org/2000/svg" x="0px" y="0px"
     width="50" height="50"
     viewBox="0 0 252 252"
     style="fill:#000000;"><g fill="none" fill-rule="nonzero" stroke="none" stroke-width="1" stroke-linecap="butt" stroke-linejoin="miter" stroke-miterlimit="10" stroke-dasharray="" stroke-dashoffset="0" font-family="none" font-weight="none" font-size="none" text-anchor="none" style="mix-blend-mode: normal"><path d="M0,252v-252h252v252z" fill="none"></path><g><g id="surface1"><path d="M72.45,81.65391c0,19.12148 -15.5039,34.65 -34.65,34.65c-19.14609,0 -34.65,-15.52852 -34.65,-34.65c0,-19.1461 15.50391,-34.65 34.65,-34.65c19.1461,0 34.65,15.5039 34.65,34.65z" fill="#ffffff"></path><path d="M37.8,50.15391c17.37422,0 31.5,14.12578 31.5,31.5c0,17.37422 -14.12578,31.5 -31.5,31.5c-17.37422,0 -31.5,-14.12578 -31.5,-31.5c0,-17.37422 14.12578,-31.5 31.5,-31.5M37.8,43.85391c-20.86875,0 -37.8,16.90664 -37.8,37.8c0,20.86875 16.93125,37.8 37.8,37.8c20.86875,0 37.8,-16.93125 37.8,-37.8c0,-20.89336 -16.93125,-37.8 -37.8,-37.8z" fill="#000000"></path><path d="M50.4,81.9c0,6.96445 -5.63555,12.6 -12.6,12.6c-6.96445,0 -12.6,-5.63555 -12.6,-12.6c0,-6.96445 5.63555,-12.6 12.6,-12.6c6.96445,0 12.6,5.63555 12.6,12.6z" fill="#000000"></path><path d="M132.3,116.55c-29.53125,0 -53.55,-24.01875 -53.55,-53.55c0,-29.53125 24.01875,-53.55 53.55,-53.55c29.53125,0 53.55,24.01875 53.55,53.55c0,29.53125 -24.01875,53.55 -53.55,53.55z" fill="#ffffff"></path><path d="M132.3,12.6c27.78398,0 50.4,22.61602 50.4,50.4c0,27.78398 -22.61602,50.4 -50.4,50.4c-27.78398,0 -50.4,-22.61602 -50.4,-50.4c0,-27.78398 22.61602,-50.4 50.4,-50.4M132.3,6.3c-31.32773,0 -56.7,25.37227 -56.7,56.7c0,31.32773 25.37227,56.7 56.7,56.7c31.32773,0 56.7,-25.37227 56.7,-56.7c0,-31.32773 -25.37227,-56.7 -56.7,-56.7z" fill="#000000"></path><path d="M144.9,63c0,6.96445 -5.63555,12.6 -12.6,12.6c-6.96445,0 -12.6,-5.63555 -12.6,-12.6c0,-6.96445 5.63555,-12.6 12.6,-12.6c6.96445,0 12.6,5.63555 12.6,12.6z" fill="#000000"></path><path d="M16.70977,242.55c-7.48125,0 -13.55977,-6.07852 -13.55977,-13.55977v-92.58047c0,-7.48125 6.07852,-13.55977 13.55977,-13.55977h149.28047c7.48125,0 13.55977,6.07852 13.55977,13.55977v92.58047c0,7.48125 -6.07852,13.55977 -13.55977,13.55977z" fill="#ffffff"></path><path d="M165.99023,126c5.73399,0 10.40977,4.67578 10.40977,10.40977v92.58047c0,5.73399 -4.67578,10.40977 -10.40977,10.40977h-149.28047c-5.73398,0 -10.40977,-4.67578 -10.40977,-10.40977v-92.58047c0,-5.73398 4.67578,-10.40977 10.40977,-10.40977h149.28047M165.99023,119.7h-149.28047c-9.22852,0 -16.70977,7.48125 -16.70977,16.70977v92.58047c0,9.22852 7.48125,16.70977 16.70977,16.70977h149.28047c9.22852,0 16.70977,-7.48125 16.70977,-16.70977v-92.58047c0,-9.22852 -7.48125,-16.70977 -16.70977,-16.70977z" fill="#000000"></path><path d="M234.50273,236.25l-34.15781,-37.8h-14.49492v-31.5h14.49492l34.15781,-37.8h14.34727v107.1z" fill="#ffffff"></path><path d="M245.7,132.3v100.8h-9.79453l-32.2875,-35.73281l-1.87031,-2.06719h-12.74766v-25.2h12.74766l1.87031,-2.06719l32.2875,-35.73281h9.79453M252,126h-18.9l-34.15781,37.8h-16.24219v37.8h16.24219l34.15781,37.8h18.9z" fill="#000000"></path><path d="M189,170.1h12.6v25.2h-12.6z" fill="#000000"></path></g></g></g></svg>