<svg xmlns="http://www.w3.org/2000/svg" x="0px" y="0px"
     width="50" height="50"
     viewBox="0 0 252 252"
     style="fill:#000000;"><g fill="none" fill-rule="nonzero" stroke="none" stroke-width="1" stroke-linecap="butt" stroke-linejoin="miter" stroke-miterlimit="10" stroke-dasharray="" stroke-dashoffset="0" font-family="none" font-weight="none" font-size="none" text-anchor="none" style="mix-blend-mode: normal"><path d="M0,252v-252h252v252z" fill="none"></path><g><g id="surface1"><path d="M122.85,223.65v-47.25c0,-29.53125 24.01875,-53.55 53.55,-53.55h12.6c29.53125,0 53.55,24.01875 53.55,53.55v47.25z" fill="#ffffff"></path><path d="M189,126c27.78398,0 50.4,22.61602 50.4,50.4v44.1h-113.4v-44.1c0,-27.78398 22.61602,-50.4 50.4,-50.4h12.6M189,119.7h-12.6c-31.32773,0 -56.7,25.37227 -56.7,56.7v50.4h126v-50.4c0,-31.32773 -25.37227,-56.7 -56.7,-56.7z" fill="#000000"></path><path d="M9.45,223.65v-59.85c0,-22.5914 18.3586,-40.95 40.95,-40.95h37.8c22.59141,0 40.95,18.3586 40.95,40.95v59.85z" fill="#ffffff"></path><path d="M88.2,126c20.84414,0 37.8,16.95586 37.8,37.8v56.7h-113.4v-56.7c0,-20.84414 16.95586,-37.8 37.8,-37.8h37.8M88.2,119.7h-37.8c-24.36328,0 -44.1,19.73672 -44.1,44.1v63h126v-63c0,-24.36328 -19.73672,-44.1 -44.1,-44.1z" fill="#000000"></path><path d="M85.05,242.55v-3.15c0,-19.09688 15.55312,-34.65 34.65,-34.65h12.6c19.09688,0 34.65,15.55312 34.65,34.65v3.15z" fill="#000000"></path><path d="M132.3,207.9c17.37422,0 31.5,14.12578 31.5,31.5h-75.6c0,-17.37422 14.12578,-31.5 31.5,-31.5h12.6M132.3,201.6h-12.6c-20.86875,0 -37.8,16.93125 -37.8,37.8v6.3h88.2v-6.3c0,-20.86875 -16.93125,-37.8 -37.8,-37.8z" fill="#000000"></path><path d="M69.3,135.45c-8.68711,0 -13.80586,-3.10078 -15.75,-4.60195v-34.99453h31.5v34.99453c-1.91953,1.47656 -7.03828,4.60195 -15.75,4.60195z" fill="#ffffff"></path><path d="M81.9,99.00352v30.17109c-2.16562,1.32891 -6.3,3.12539 -12.6,3.12539c-6.32461,0 -10.45898,-1.82109 -12.6,-3.10078v-30.1957h25.2M88.2,92.70352h-37.8v39.59648c0,0 6.07852,6.3 18.9,6.3c12.82148,0 18.9,-6.3 18.9,-6.3z" fill="#000000"></path><path d="M95.41055,87.75703c-4.23281,0 -7.65351,-3.44531 -7.65351,-7.65352c0,-4.2082 3.4207,-7.65352 7.65351,-7.65352c8.53945,0 8.53945,2.73164 8.53945,4.06055c0,4.42969 -4.57734,11.24649 -8.53945,11.24649zM41.39297,87.75703c-3.46993,0 -6.74297,-6.34922 -6.74297,-11.24649c0,-2.51015 0.31992,-4.06055 6.74297,-4.06055c4.2082,0 7.65351,3.44531 7.65351,7.65352c0,4.2082 -3.4207,7.65352 -7.65351,7.65352z" fill="#ffffff"></path><path d="M95.41055,75.6c3.51914,0 4.94649,0.54141 5.38945,0.76289c0,0.04922 0,0.07383 0,0.14765c0,3.29766 -3.78984,8.09649 -5.38945,8.09649c-2.48555,0 -4.50351,-2.01797 -4.50351,-4.50352c0,-2.48555 2.01797,-4.50352 4.50351,-4.50352M41.39297,75.6c2.48555,0 4.50351,2.01797 4.50351,4.50352c0,2.48555 -2.01797,4.50352 -4.50351,4.50352c-1.10743,-0.22149 -3.59297,-4.28203 -3.59297,-8.09649c0,-0.24609 0.02461,-0.44297 0.02461,-0.59063c0.46758,-0.12305 1.50118,-0.31992 3.56836,-0.31992M95.41055,69.3c-5.98007,0 -10.80351,4.84805 -10.80351,10.80352c0,5.95547 4.82344,10.80352 10.80351,10.80352c5.95547,0 11.68945,-8.44102 11.68945,-14.39649c0,-5.98007 -5.73398,-7.21055 -11.68945,-7.21055zM41.39297,69.3c-5.95547,0 -9.89297,1.23047 -9.89297,7.21055c0,5.95547 3.9375,14.39649 9.89297,14.39649c5.95547,0 10.80351,-4.84805 10.80351,-10.80352c0,-5.95547 -4.82344,-10.80352 -10.80351,-10.80352z" fill="#000000"></path><path d="M69.3,116.55c-2.65781,0 -5.11875,-1.25508 -6.74297,-3.44531l-0.61524,-0.81211l-0.98437,-0.29531c-11.96015,-3.71602 -20.00742,-14.54414 -20.00742,-26.94727v-38.09531c0,-6.54609 5.31563,-11.86172 11.86172,-11.86172h32.97656c6.54609,0 11.86172,5.31563 11.86172,11.86172v38.09531c0,12.40313 -8.04727,23.23125 -20.00742,26.94727l-0.98437,0.29531l-0.61523,0.81211c-1.62422,2.19023 -4.08516,3.44531 -6.74297,3.44531z" fill="#ffffff"></path><path d="M85.78828,38.24297c4.79882,0 8.71172,3.91289 8.71172,8.71172v38.09531c0,11.025 -7.16133,20.62266 -17.79258,23.94492l-1.94414,0.59063l-1.23047,1.64883c-1.03359,1.37812 -2.55937,2.16562 -4.23281,2.16562c-1.67344,0 -3.19922,-0.7875 -4.23281,-2.16562l-1.23047,-1.64883l-1.94414,-0.59063c-10.63125,-3.32226 -17.79258,-12.91992 -17.79258,-23.94492v-38.09531c0,-4.79883 3.91289,-8.71172 8.71172,-8.71172h32.97656M85.78828,31.94297h-32.97656c-8.29336,0 -15.01172,6.71836 -15.01172,15.01172v38.09531c0,14.15039 9.37617,25.96289 22.22227,29.94961c2.1164,2.83008 5.46328,4.70039 9.27773,4.70039c3.81445,0 7.16133,-1.87031 9.27773,-4.70039c12.8461,-3.98672 22.22227,-15.79922 22.22227,-29.94961v-38.09531c0,-8.29336 -6.71836,-15.01172 -15.01172,-15.01172z" fill="#000000"></path><path d="M182.7,135.45c-8.68711,0 -13.80586,-3.10078 -15.75,-4.60195v-34.99453h31.5v34.99453c-1.91953,1.47656 -7.03828,4.60195 -15.75,4.60195z" fill="#ffffff"></path><path d="M195.3,99.00352v30.17109c-2.16562,1.32891 -6.3,3.12539 -12.6,3.12539c-6.32461,0 -10.45898,-1.82109 -12.6,-3.10078v-30.1957h25.2M201.6,92.70352h-37.8v39.59648c0,0 6.07852,6.3 18.9,6.3c12.82148,0 18.9,-6.3 18.9,-6.3z" fill="#000000"></path><path d="M182.7,116.55c-2.16563,0 -4.23281,-0.83672 -5.83242,-2.3625l-0.59062,-0.56602l-0.7875,-0.19687c-12.45235,-3.29765 -21.13945,-14.51953 -21.13945,-27.2918v-31.81992c0,-6.52148 5.31563,-11.86172 11.86172,-11.86172h32.97656c6.54609,0 11.86172,5.34024 11.86172,11.86172v31.79531c0,12.79688 -8.68711,24.01875 -21.13945,27.3164l-0.7875,0.19687l-0.59062,0.56602c-1.59961,1.52578 -3.6668,2.3625 -5.83242,2.3625z" fill="#ffffff"></path><path d="M199.18828,45.60117c4.79882,0 8.71172,3.91289 8.71172,8.71172v31.79531c0,11.36953 -7.72734,21.33633 -18.80156,24.26484l-1.575,0.41836l-1.18125,1.13203c-0.98437,0.93516 -2.28867,1.47656 -3.64219,1.47656c-1.35352,0 -2.65781,-0.5414 -3.64219,-1.47656l-1.18125,-1.13203l-1.575,-0.41836c-11.07422,-2.92851 -18.80156,-12.89531 -18.80156,-24.24023v-31.81992c0,-4.79883 3.91289,-8.71172 8.71172,-8.71172h32.97656M199.18828,39.30117h-32.97656c-8.29336,0 -15.01172,6.71836 -15.01172,15.01172v31.79531c0,14.61797 9.99141,26.79961 23.50195,30.34336c2.06719,2.01797 4.89727,3.24844 7.99805,3.24844c3.10078,0 5.93086,-1.23047 7.99805,-3.24844c13.51055,-3.54375 23.50195,-15.72539 23.50195,-30.31875v-31.81992c0,-8.29336 -6.71836,-15.01172 -15.01172,-15.01172z" fill="#000000"></path><path d="M97.65,76.43672v-10.7543c0,-14.74101 -6.86602,-22.17305 -7.16133,-22.46836l-2.55937,-2.70703l-2.23945,2.95313c-0.29531,0.39375 -8.1457,10.08984 -28.98985,10.08984c-13.06758,0 -15.75,7.65352 -15.75,19.12148v3.76524h-1.0582c-1.62422,-4.03594 -5.2418,-14.37187 -5.2418,-26.03672c0,-21.70547 13.16602,-34.65 35.19141,-34.65c13.41211,0 18.48164,10.65586 18.53086,10.77891l0.83672,1.82109h2.01797c7.6043,0 12.72305,8.85938 12.72305,22.05c0,4.60195 -3.56836,18.70312 -5.56172,26.03672z" fill="#000000"></path><path d="M69.84141,18.9c11.17265,0 15.52851,8.63789 15.67617,8.9332l1.67344,3.6668h4.03594c5.63555,0 9.57305,7.77656 9.57305,18.9c0,1.23047 -0.34453,3.44531 -0.86133,6.17695c-1.94414,-9.74531 -6.52148,-14.86406 -7.16132,-15.52852l-4.9957,-5.11875l-4.52813,5.56172c-0.29531,0.34453 -7.48125,8.90859 -26.55352,8.90859c-11.12344,0 -15.82383,5.26641 -17.69414,11.83711c-0.71367,-3.59297 -1.20586,-7.6289 -1.20586,-11.83711c0,-20.03203 11.66485,-31.5 32.04141,-31.5M69.84141,12.6c-22.66524,0 -38.34141,13.26445 -38.34141,37.8c0,15.89766 6.3,29.18672 6.3,29.18672h6.3c0,0 0,-2.55938 0,-6.91524c0,-12.00938 3.02695,-15.97148 12.6,-15.97148c22.88672,0 31.5,-11.32031 31.5,-11.32031c0,0 6.3,6.64453 6.3,20.30273c0,4.79883 0,13.9043 0,13.9043h6.3c0,0 6.3,-22.49297 6.3,-29.18672c0,-15.72539 -6.8168,-25.2 -15.87305,-25.2c0,0 -5.80781,-12.6 -21.38555,-12.6z" fill="#000000"></path><path d="M213.26485,114.31055c-8.41641,0 -13.80586,-2.65781 -16.61133,-4.57734c3.22383,-3.69141 8.09648,-11.2711 8.09648,-23.13281v-7.01367c0,-10.85274 -2.78086,-16.11914 -3.10078,-16.68516l-1.96875,-3.51914l-2.95312,2.75625c-0.04922,0.07383 -7.48125,6.8168 -23.37891,9.7207c-11.78789,2.14102 -12.69844,14.83945 -12.69844,18.65391c0,11.39414 4.10977,17.10351 7.75195,19.90898c-3.19922,1.82109 -8.51485,3.86367 -16.0207,3.86367c-7.92422,0 -16.24219,-3.64219 -20.89336,-6.0539c4.13437,-3.96211 10.26211,-11.51719 10.26211,-21.2625v-17.71875c0,-25.22461 15.65156,-40.90078 40.87617,-40.90078c14.27344,0 21.09024,9.35156 21.13945,9.45l0.93516,1.32891h1.64882c10.65586,0 17.30039,11.5664 17.30039,30.17109v17.66953c0,9.03164 6.27539,14.9625 10.55742,17.96484c-4.13438,3.56836 -12.23086,9.37617 -20.94257,9.37617z" fill="#ffffff"></path><path d="M182.62617,31.5c12.40312,0 18.3586,7.85039 18.58008,8.1211l1.89492,2.65781h3.24844c8.73633,0 14.15039,10.36055 14.15039,27.02109v17.66953c0,8.21953 4.42969,14.175 8.6625,17.96484c-4.06055,2.97773 -9.86836,6.22617 -15.89765,6.22617c-5.29102,0 -9.22852,-1.15664 -11.93555,-2.38711c3.19922,-4.65117 6.5707,-11.98477 6.5707,-22.17305v-7.01367c0,-11.41875 -2.92852,-17.20195 -3.49453,-18.23555l-3.9375,-6.8414l-5.85703,5.31563c-0.04922,0.07383 -6.98906,6.22617 -21.82852,8.9332c-9.42539,1.72265 -15.28242,10.06523 -15.28242,21.7793c0,9.13008 2.48555,15.06094 5.48789,18.9c-2.70703,0.95977 -6.22617,1.72265 -10.60664,1.72265c-5.48789,0 -11.2957,-1.96875 -15.67617,-3.91289c3.98672,-4.725 8.19492,-11.71406 8.19492,-20.27812v-17.71875c0,-23.64961 14.10117,-37.75078 37.72617,-37.75078M182.62617,25.2c-24.80625,0 -44.02617,14.91328 -44.02617,44.05078c0,7.06289 0,8.85938 0,17.71875c0,12.91992 -12.57539,21.7793 -12.57539,21.7793c0,0 13.46133,8.68711 26.35664,8.68711c14.76563,0 21.97617,-7.48125 21.97617,-7.48125c0,0 -10.55742,-1.89492 -10.55742,-19.4168c0,-2.8793 0.54141,-13.83047 10.11445,-15.57773c17.20195,-3.12539 24.97852,-10.5082 24.97852,-10.5082c0,0 2.70703,4.79883 2.70703,15.13477c0,4.89726 0,-1.00899 0,7.03828c0,15.94687 -9.59765,23.30508 -9.59765,23.30508c0,0 6.61992,7.53047 21.2625,7.53047c14.10117,0 26.11055,-13.06757 26.11055,-13.06757c0,0 -12.57539,-5.85703 -12.57539,-17.42344c0,-10.26211 0,-10.28672 0,-17.66953c0,-23.74805 -9.86836,-33.32109 -20.45039,-33.32109c0,0 -7.65351,-10.77891 -23.72344,-10.77891z" fill="#000000"></path><path d="M113.4,207.9v-24.28945h25.2v24.28945c0,0 -4.03594,6.3 -12.6,6.3c-8.56406,0 -12.6,-6.3 -12.6,-6.3z" fill="#000000"></path><path d="M149.00977,183.04453c-2.01797,0 -3.74062,-2.31328 -3.74062,-5.04493c0,-2.75625 1.72265,-5.06953 3.74062,-5.06953c2.04258,0 3.76523,2.31328 3.76523,5.06953c0,2.73164 -1.72265,5.04493 -3.76523,5.04493zM102.99023,183.04453c-2.04257,0 -3.76523,-2.31328 -3.76523,-5.04493c0,-2.75625 1.72266,-5.06953 3.76523,-5.06953c2.01797,0 3.74062,2.31328 3.74062,5.06953c0,2.73164 -1.72265,5.04493 -3.74062,5.04493z" fill="#ffffff"></path><path d="M149.00977,176.17852c0.24609,0.24609 0.61523,0.86133 0.61523,1.82109c0,1.15664 -0.56602,1.8211 -0.46758,1.91953c-0.19688,-0.09844 -0.73828,-0.76289 -0.73828,-1.91953c0,-0.95976 0.36914,-1.575 0.59063,-1.82109M102.99023,176.17852c0.22149,0.24609 0.59063,0.86133 0.59063,1.82109c0,1.15664 -0.5414,1.8211 -0.46757,1.91953c-0.17227,-0.09844 -0.73828,-0.76289 -0.73828,-1.91953c0,-0.95976 0.36914,-1.575 0.61523,-1.82109M149.00977,169.78008c-3.78985,0 -6.89062,3.6914 -6.89062,8.21953c0,4.50352 3.10078,8.19493 6.89063,8.19493c3.81445,0 6.91523,-3.69141 6.91523,-8.19493c0,-4.52813 -3.10078,-8.21953 -6.91523,-8.21953zM102.99023,169.78008c-3.81445,0 -6.91523,3.6914 -6.91523,8.21953c0,4.50352 3.10078,8.19493 6.91523,8.19493c3.78985,0 6.89063,-3.69141 6.89063,-8.19493c0,-4.52813 -3.07617,-8.21953 -6.89062,-8.21953z" fill="#000000"></path><path d="M126,204.75c-12.15703,0 -22.05,-9.89297 -22.05,-22.05v-22.05h44.1v22.05c0,12.15703 -9.89297,22.05 -22.05,22.05z" fill="#ffffff"></path><path d="M144.9,163.8v18.9c0,10.40977 -8.49023,18.9 -18.9,18.9c-10.40977,0 -18.9,-8.49023 -18.9,-18.9v-18.9h37.8M151.2,157.5h-50.4v25.2c0,13.92891 11.2711,25.2 25.2,25.2c13.92891,0 25.2,-11.27109 25.2,-25.2z" fill="#000000"></path><path d="M148.05,179.55v-5.02031c0,-7.65352 -6.22617,-13.87969 -13.87969,-13.87969h-16.34063c-7.65352,0 -13.87969,6.22617 -13.87969,13.87969v5.02031h-0.76289c-0.88594,-3.29765 -2.38711,-9.7207 -2.38711,-15.18398c0,-10.92656 10.11445,-22.61602 25.2,-22.61602c15.08555,0 25.2,11.68945 25.2,22.61602c0,5.58633 -1.47656,11.93555 -2.3625,15.18398z" fill="#ffffff"></path><path d="M126,144.9c13.19062,0 22.05,10.06523 22.05,19.46602c0,0.09844 0,0.19688 0,0.31992c-3.10078,-4.35586 -8.17031,-7.18594 -13.87969,-7.18594h-16.34063c-5.70937,0 -10.7789,2.83008 -13.87969,7.18594c0,-0.12305 0,-0.22148 0,-0.31992c0,-9.40078 8.85938,-19.46602 22.05,-19.46602M126,138.6c-16.68515,0 -28.35,12.94453 -28.35,25.76602c0,8.29336 3.15,18.33398 3.15,18.33398h6.3v-8.17031c0,-5.93086 4.79883,-10.72969 10.72969,-10.72969h16.34063c5.93086,0 10.72969,4.79883 10.72969,10.72969v8.17031h6.3c0,0 3.15,-9.84375 3.15,-18.33398c0,-12.8707 -11.66484,-25.76602 -28.35,-25.76602z" fill="#000000"></path></g></g></g></svg>