<svg xmlns="http://www.w3.org/2000/svg" x="0px" y="0px"
     width="50" height="50"
     viewBox="0 0 252 252"
     style="fill:#000000;"><g fill="none" fill-rule="nonzero" stroke="none" stroke-width="1" stroke-linecap="butt" stroke-linejoin="miter" stroke-miterlimit="10" stroke-dasharray="" stroke-dashoffset="0" font-family="none" font-weight="none" font-size="none" text-anchor="none" style="mix-blend-mode: normal"><path d="M0,252v-252h252v252z" fill="none"></path><g><g id="surface1"><path d="M195.96445,113.81836c-2.11641,-3.71601 -5.93086,-5.93086 -10.21289,-5.93086c-4.25742,0 -8.07188,2.21485 -10.18828,5.95547l-4.77422,8.44101l-1.15664,-0.34453l0.49219,-9.9668c0.14766,-3.22383 -0.98437,-6.3 -3.19922,-8.61328c-2.21485,-2.33789 -5.31563,-3.6668 -8.51485,-3.6668c-1.89492,0 -3.74062,0.44297 -5.46328,1.35352l-9.1793,4.84805l-0.59063,-0.68906l6.27539,-8.88398c2.43633,-3.44531 2.83008,-7.77656 1.0582,-11.61562c-1.74727,-3.83906 -5.31562,-6.37383 -9.54844,-6.76758l-11.51719,-1.08281l-0.07383,-0.49219l10.87735,-4.35586c3.91289,-1.575 6.59531,-5.02031 7.21055,-9.1793c0.61523,-4.18359 -1.00898,-8.21953 -4.30664,-10.85273l-9.94219,-7.85039l0.02461,-0.07382l12.05859,2.38711c0.7875,0.14765 1.575,0.22148 2.33789,0.22148c3.74062,0 7.30898,-1.82109 9.49922,-4.92187c2.21485,-3.10078 2.78086,-6.96445 1.52578,-10.58203l-4.13438,-12.03399l8.81015,8.56406c2.19024,2.14102 5.06953,3.32227 8.1211,3.32227c5.48789,0 10.18828,-3.71602 11.44336,-9.03164l2.85469,-12.10781l2.85469,12.10781c1.27969,5.31562 5.98008,9.03164 11.44336,9.03164c3.05156,0 5.93086,-1.18125 8.1457,-3.32227l8.78555,-8.56406l-4.13438,12.03399c-1.25507,3.61757 -0.68906,7.48125 1.52578,10.60664c2.21484,3.07618 5.75859,4.92188 9.49922,4.92188c0.76289,0 1.55039,-0.07382 2.33789,-0.24609l11.93555,-2.3625l0.04922,0.12305l-9.81914,7.77656c-3.29765,2.6086 -4.92187,6.66914 -4.33125,10.82813c0.61523,4.1836 3.29766,7.6043 7.23516,9.1793l10.85273,4.38047l-0.07383,0.46758l-11.51719,1.08281c-4.2082,0.39375 -7.77656,2.92851 -9.54844,6.76757c-1.77187,3.83906 -1.35352,8.17031 1.08281,11.64024l6.27539,8.88398l-0.61523,0.66445l-9.1793,-4.82344c-1.72265,-0.91055 -3.54375,-1.37812 -5.46328,-1.37812c-3.17461,0 -6.3,1.35351 -8.51485,3.6914c-2.21484,2.31328 -3.34688,5.38945 -3.17461,8.61328l0.49219,9.9668l-1.15664,0.31992z" fill="#ffffff"></path><path d="M185.75156,23.47735c1.8457,6.32461 7.62891,10.68047 14.32266,10.68047c3.56836,0 6.96445,-1.27969 9.67148,-3.64219c-1.40273,4.47891 -0.66445,9.22852 2.06719,13.04297c2.78086,3.91289 7.30898,6.25078 12.05859,6.25078c0.81211,0 1.59961,-0.04922 2.38711,-0.17227c-4.08516,3.32227 -6.07852,8.3918 -5.31563,13.6336c0.76289,5.21719 4.08515,9.52383 8.9332,11.5664c-5.19257,0.59063 -9.54844,3.76524 -11.73867,8.53945c-2.21484,4.77422 -1.74727,10.21289 1.20586,14.54414c-1.96875,-0.91055 -4.06055,-1.37812 -6.22617,-1.37812c-4.06055,0 -7.99805,1.69805 -10.80352,4.65117c-2.68242,2.80547 -4.10976,6.47227 -4.06055,10.33594c-2.75625,-4.25742 -7.3582,-6.79219 -12.50156,-6.79219c-5.11875,0 -9.7207,2.53477 -12.47695,6.79219c0.04922,-3.88828 -1.37813,-7.53047 -4.06055,-10.33594c-2.80547,-2.95312 -6.74297,-4.65117 -10.80352,-4.65117c-2.14101,0 -4.28203,0.46758 -6.25078,1.40273c2.97773,-4.35586 3.4207,-9.76992 1.23047,-14.56875c-2.19023,-4.74961 -6.5707,-7.92422 -11.73867,-8.53945c4.84805,-2.04257 8.17031,-6.34922 8.9332,-11.5664c0.76289,-5.21719 -1.23047,-10.31133 -5.31562,-13.6336c0.7875,0.12305 1.575,0.17227 2.3625,0.17227c4.77422,0 9.27773,-2.33789 12.0832,-6.25078c2.73164,-3.81445 3.46992,-8.56406 2.06719,-13.01836c2.70703,2.33789 6.10313,3.61758 9.67148,3.61758c6.69375,0 12.45234,-4.35586 14.29805,-10.68047M185.75156,6.3c-0.81211,0 -1.59961,0.09844 -2.41172,0.12305l-3.49453,14.81485c-0.98437,4.15898 -4.62656,6.59531 -8.36719,6.59531c-2.1164,0 -4.23281,-0.76289 -5.95547,-2.41172l-10.7543,-10.48359c-2.23945,1.42734 -1.89492,1.20586 -4.10976,2.60859l5.04492,14.64258c1.94414,5.66016 -2.38711,11.32031 -8.04727,11.32031c-0.56602,0 -1.13203,-0.04922 -1.72265,-0.14765l-14.49493,-2.8793c-1.13203,2.46094 -0.95976,2.0918 -2.1164,4.55274l11.88633,9.40078c5.14336,4.08516 3.96211,12.18164 -2.11641,14.64258l-13.16602,5.29102c0.41836,2.9039 0.34453,2.48555 0.76289,5.36484l14.00273,1.32891c6.5461,0.61523 9.9668,8.07188 6.17695,13.43672l-7.70273,10.92656c2.0918,2.3625 1.77187,2.01797 3.86367,4.40508l11.39414,-5.98008c1.3043,-0.68906 2.68242,-1.00898 3.98672,-1.00898c4.65118,0 8.83477,3.83906 8.56406,8.98242l-0.61523,12.45235c3.22383,0.93515 2.73164,0.7875 5.93086,1.72265l6.0293,-10.60664c1.62422,-2.9039 4.52813,-4.33125 7.43203,-4.33125c2.90391,0 5.83242,1.42735 7.45664,4.33125l6.00469,10.60664c3.22383,-0.93515 2.73164,-0.7875 5.95547,-1.72265l-0.61523,-12.45235c-0.2707,-5.14336 3.91289,-8.98242 8.53945,-8.98242c1.3289,0 2.70703,0.31992 4.01133,0.98438l11.36953,6.00469c2.0918,-2.38711 1.79648,-2.04258 3.88828,-4.40508l-7.72735,-10.92656c-3.78984,-5.36484 -0.34453,-12.82148 6.20156,-13.43672l13.97813,-1.32891c0.44297,-2.8793 0.36914,-2.46094 0.7875,-5.36484l-13.16602,-5.29102c-6.07851,-2.46094 -7.25976,-10.55742 -2.1164,-14.64258l11.78789,-9.32695c-1.15664,-2.48555 -0.98437,-2.1164 -2.14102,-4.60195l-14.37187,2.85469c-0.59063,0.09844 -1.15664,0.14765 -1.72266,0.14765c-5.68476,0 -10.01601,-5.63555 -8.04726,-11.32031l5.04492,-14.64258c-2.23945,-1.40273 -1.89492,-1.18125 -4.10977,-2.60859l-10.7789,10.48359c-1.69805,1.64883 -3.83906,2.41172 -5.93086,2.41172c-3.74062,0 -7.38281,-2.43633 -8.36719,-6.59531l-3.49453,-14.81485c-0.81211,-0.02461 -1.62422,-0.12305 -2.43633,-0.12305z" fill="#000000"></path><path d="M119.35547,113.89219l57.53672,-58.7918c0.98438,-0.98437 2.33789,-1.55039 3.78985,-1.55039c1.45195,0 2.80547,0.56602 3.81445,1.575l12.0832,12.10781c2.11641,2.0918 2.11641,5.5125 0,7.62891l-57.4875,58.74257z" fill="#ffffff"></path><path d="M180.68203,56.7c0.34453,0 1.03359,0.09844 1.59961,0.66445l12.0832,12.0832c0.56601,0.56601 0.66445,1.25507 0.66445,1.59961c0,0.34453 -0.09844,1.00898 -0.71367,1.62422l-55.24805,56.45391l-15.28242,-15.25781l55.32187,-56.50312c0.56601,-0.56602 1.23047,-0.66445 1.575,-0.66445M180.68203,50.4c-2.19024,0 -4.38047,0.83672 -6.05391,2.51016l-59.70234,60.98203l24.1664,24.19102l59.72695,-61.00664c3.34688,-3.34687 3.34688,-8.73633 0,-12.0832l-12.0832,-12.0832c-1.67344,-1.67344 -3.86367,-2.51016 -6.0539,-2.51016z" fill="#000000"></path><path d="M26.94727,242.55c-1.45195,0 -2.80547,-0.56602 -3.81445,-1.575l-12.10781,-12.10781c-2.0918,-2.0918 -2.0918,-5.5125 0,-7.6289l109.68398,-108.675l19.71211,19.73672l-109.65937,108.65039c-1.00899,1.03359 -2.38711,1.59961 -3.81445,1.59961z" fill="#ffffff"></path><path d="M120.70898,117.01758l15.25781,15.25781l-107.44453,106.46015c-0.56602,0.56602 -1.23047,0.66445 -1.575,0.66445c-0.34453,0 -1.0336,-0.09844 -1.59961,-0.66445l-12.0832,-12.0832c-0.56602,-0.56602 -0.66445,-1.25508 -0.66445,-1.59961c0,-0.34453 0.09844,-1.00898 0.63985,-1.55039l107.46914,-106.48477M120.70898,108.10898l-111.89882,110.91445c-3.34688,3.32227 -3.34688,8.73633 0,12.0832l12.0832,12.0832c1.67344,1.67344 3.86368,2.51015 6.05391,2.51015c2.16562,0 4.38047,-0.83672 6.0293,-2.51015l111.92344,-110.88985z" fill="#000000"></path><path d="M223.3793,242.55c-1.55039,-8.73633 -9.35156,-16.0207 -18.6293,-17.39883v-1.74726c9.20391,-1.52578 17.12812,-9.45 18.65391,-18.65391h0.49219c1.52578,9.20391 9.45,17.12812 18.6539,18.65391v0.49219c-9.2039,1.52578 -17.12812,9.45 -18.6539,18.6539z" fill="#ffffff"></path><path d="M223.65,213.21563c2.43633,4.33125 6.10312,7.99805 10.43437,10.43438c-4.38047,2.46094 -8.07188,6.17695 -10.5082,10.53281c-2.55938,-4.33125 -6.52148,-7.875 -11.24648,-10.06523c4.70039,-2.41172 8.73633,-6.27539 11.32031,-10.90195M226.8,201.6h-6.3c0,9.74531 -9.15469,18.9 -18.9,18.9v7.55508c9.74531,0 18.9,7.89961 18.9,17.64492h6.3c0,-9.74531 9.15469,-18.9 18.9,-18.9v-6.3c-9.74531,0 -18.9,-9.15469 -18.9,-18.9z" fill="#000000"></path><path d="M172.9793,198.45c-1.55039,-8.73633 -9.35156,-16.0207 -18.6293,-17.39883v-1.74726c9.20391,-1.52578 17.12813,-9.45 18.65391,-18.65391h0.49219c1.52578,9.20391 9.45,17.12812 18.6539,18.65391v0.49219c-9.2039,1.52578 -17.12813,9.45 -18.6539,18.6539z" fill="#ffffff"></path><path d="M173.25,169.11563c2.43633,4.33125 6.10313,7.99805 10.43437,10.43437c-4.38047,2.46094 -8.07188,6.17695 -10.5082,10.53281c-2.55937,-4.33125 -6.52148,-7.875 -11.24648,-10.06523c4.70039,-2.41172 8.73633,-6.27539 11.32031,-10.90195M176.4,157.5h-6.3c0,9.74531 -9.15469,18.9 -18.9,18.9v7.55508c9.74531,0 18.9,7.89961 18.9,17.64492h6.3c0,-9.74531 9.15469,-18.9 18.9,-18.9v-6.3c-9.74531,0 -18.9,-9.15469 -18.9,-18.9z" fill="#000000"></path></g></g></g></svg>