<svg xmlns="http://www.w3.org/2000/svg" x="0px" y="0px"
     width="50" height="50"
     viewBox="0 0 252 252"
     style="fill:#000000;"><g fill="none" fill-rule="nonzero" stroke="none" stroke-width="1" stroke-linecap="butt" stroke-linejoin="miter" stroke-miterlimit="10" stroke-dasharray="" stroke-dashoffset="0" font-family="none" font-weight="none" font-size="none" text-anchor="none" style="mix-blend-mode: normal"><path d="M0,252v-252h252v252z" fill="none"></path><g><g id="surface1"><path d="M59.85,218.1375v-29.1375c0,-25.79063 15.18398,-49.39102 38.71055,-60.14531l6.27539,-2.85469l-6.27539,-2.85469c-23.52656,-10.7543 -38.71055,-34.35469 -38.71055,-60.14531v-29.1375h132.3v29.1375c0,25.79062 -15.18398,49.39102 -38.71055,60.14531l-6.27539,2.85469l6.27539,2.85469c23.52656,10.7543 38.71055,34.35469 38.71055,60.14531v29.1375z" fill="#ffffff"></path><path d="M189,37.0125v25.9875c0,24.56016 -14.47031,47.02852 -36.86484,57.26602l-12.55078,5.73398l12.55078,5.73398c22.39453,10.2375 36.86484,32.70586 36.86484,57.26602v25.9875h-126v-25.9875c0,-24.56015 14.47031,-47.02852 36.86485,-57.26602l12.55078,-5.73398l-12.55078,-5.73398c-22.39453,-10.2375 -36.86485,-32.70586 -36.86485,-57.26602v-25.9875h126M195.3,30.7125h-138.6v32.2875c0,28.00547 16.63594,52.07344 40.55625,63c-23.92031,10.92656 -40.55625,34.99453 -40.55625,63v32.2875h138.6v-32.2875c0,-28.00547 -16.63594,-52.07344 -40.55625,-63c23.92031,-10.92656 40.55625,-34.99453 40.55625,-63z" fill="#000000"></path><path d="M59.85,47.25v-18.9h-3.15c-7.45664,0 -15.75,-5.53711 -15.75,-13.51055v-5.38945h170.1v3.15c0,7.65352 -8.09648,15.75 -15.75,15.75h-3.15v18.9z" fill="#cccccc"></path><path d="M207.9,12.6c0,6.00469 -6.59531,12.6 -12.6,12.6h-6.3v18.9h-126v-18.9h-6.3c-5.95547,0 -12.6,-4.42969 -12.6,-10.36055v-2.23945h163.8M214.2,6.3h-176.4v8.53945c0,9.45 9.45,16.66055 18.9,16.66055v18.9h138.6v-18.9c9.45,0 18.9,-9.45 18.9,-18.9z" fill="#000000"></path><path d="M69.3,207.9h113.4c0,-37.97227 -56.7,-56.7 -56.7,-56.7c0,0 -56.7,18.3832 -56.7,56.7z" fill="#666666"></path><path d="M40.95,242.55v-3.15c0,-7.65352 8.09648,-15.75 15.75,-15.75h3.15v-18.9h132.3v18.9h3.15c7.65352,0 15.75,8.09648 15.75,15.75v3.15z" fill="#cccccc"></path><path d="M189,207.9v18.9h6.3c6.00469,0 12.6,6.59531 12.6,12.6h-163.8c0,-6.00469 6.59531,-12.6 12.6,-12.6h6.3v-18.9h126M195.3,201.6h-138.6v18.9c-9.45,0 -18.9,9.45 -18.9,18.9v6.3h176.4v-6.3c0,-9.45 -9.45,-18.9 -18.9,-18.9z" fill="#000000"></path><path d="M81.60469,88.2c8.88398,15.30703 25.42148,25.2 44.39531,25.2c18.97383,0 35.24062,-9.89297 44.1,-25.2z" fill="#666666"></path><path d="M63,25.2h126v18.9h-126z" fill="#ffffff"></path><path d="M63,207.9h126v18.9h-126z" fill="#ffffff"></path></g></g></g></svg>