<svg xmlns="http://www.w3.org/2000/svg" x="0px" y="0px"
     width="50" height="50"
     viewBox="0 0 252 252"
     style="fill:#000000;"><g fill="none" fill-rule="nonzero" stroke="none" stroke-width="1" stroke-linecap="butt" stroke-linejoin="miter" stroke-miterlimit="10" stroke-dasharray="" stroke-dashoffset="0" font-family="none" font-weight="none" font-size="none" text-anchor="none" style="mix-blend-mode: normal"><path d="M0,252v-252h252v252z" fill="none"></path><g><g id="surface1"><path d="M126.02461,165.67031l-12.82148,12.77227l-32.95195,-27.43945l116.25469,-116.25469c0.86133,0.04922 2.01797,0.07383 3.44531,0.07383c9.59766,0 30.46641,-1.8457 42.62344,-16.7836c-0.04922,41.39297 -4.18359,72.59766 -97.67461,166.50703z" fill="#ffffff"></path><path d="M239.35078,25.76602c-0.86133,36.79102 -9.94219,69.0293 -94.45078,154.32539l-18.87539,-18.87539l-4.4543,4.4543l-8.53945,8.51485l-28.0793,-23.40352l112.83398,-112.83398c0.63985,0.02461 1.37813,0.02461 2.16563,0.02461c8.76094,0 26.40586,-1.47656 39.39961,-12.20625M245.7,6.3c-8.73633,22.93594 -34.99453,25.37227 -45.74883,25.37227c-2.8793,0 -4.65117,-0.17227 -4.65117,-0.17227l-119.7,119.7l37.8,31.5l12.62461,-12.57539l18.87539,18.87539c105.22969,-105.22969 100.8,-133.55508 100.8,-182.7z" fill="#000000"></path><path d="M166.95,217.35c-3.12539,0 -6.3,-1.94414 -6.3,-6.3c0,-2.6332 3.15,-9.54844 6.3,-15.55312c3.15,6.00469 6.3,12.91992 6.3,15.55312c0,4.35586 -3.17461,6.3 -6.3,6.3z" fill="#ffffff"></path><path d="M166.95,202.55977c1.8457,3.9375 3.10078,7.21055 3.15,8.49023c0,2.73164 -1.96875,3.15 -3.15,3.15c-1.18125,0 -3.15,-0.41836 -3.15,-3.12539c0.04922,-1.3043 1.3043,-4.55273 3.15,-8.51484M166.95,189c0,0 -9.45,16.24219 -9.45,22.05c0,5.80781 4.23281,9.45 9.45,9.45c5.21719,0 9.45,-3.64219 9.45,-9.45c0,-5.80781 -9.45,-22.05 -9.45,-22.05z" fill="#000000"></path><path d="M130.4543,132.3l-3.54375,-5.38945l95.43516,-95.41055l14.9625,-6.0539z" fill="#000000"></path><path d="M195.3,179.55c-5.21719,0 -9.45,-4.23281 -9.45,-9.45c0,-1.00898 0.5168,-4.42969 5.2418,-14.37187c1.0582,-2.26406 1.8211,-4.87265 2.33789,-7.99805c0.04922,-0.34453 0.17227,-1.0336 -0.02461,-1.87031c-0.5168,-2.16563 -2.19023,-3.56836 -4.28203,-3.56836c-2.16563,0 -4.60195,1.47656 -7.89961,4.79882c-1.47656,1.50118 -2.9039,2.97774 -4.33125,4.42969c2.6332,-5.31562 5.21719,-10.90195 7.48125,-16.38984c0.12305,0.02461 0.22148,0.02461 0.34453,0.02461c1.74726,0 3.15,-1.40273 3.15,-3.15c0,-1.03359 -0.49219,-1.94414 -1.25508,-2.51015c3.29765,-8.68711 5.53711,-16.70977 5.53711,-22.39453v-1.77187c-0.02461,-12.69844 -0.02461,-17.42344 10.28672,-22.5914c14.29805,-7.16133 14.91328,-15.08555 14.91328,-32.33672v-17.49727c5.19258,-1.40273 17.02969,-5.5125 25.24922,-15.33164c0.14765,21.7793 -0.22149,40.95 -11.39414,63.49219c-4.74961,9.64687 -12.45235,20.2289 -19.9336,30.26953c-0.44297,0.56602 -1.0582,1.3043 -1.77187,2.14102c-3.86367,4.62656 -11.04961,13.23984 -12.8707,23.625c-0.19688,1.25508 -0.29531,2.41172 -0.29531,3.59297v0.88594c0,4.89727 1.10742,9.79453 3.17461,14.15039c4.725,9.94219 5.2418,13.36289 5.2418,14.37187c0,5.21719 -4.23281,9.45 -9.45,9.45z" fill="#ffffff"></path><path d="M239.47383,25.10156c-0.12305,18.3832 -1.52578,35.28985 -11.07422,54.55898c-4.65117,9.42539 -12.25547,19.88438 -19.61367,29.72813c-0.44297,0.56602 -1.00898,1.27969 -1.69805,2.0918c-4.03594,4.84805 -11.59102,13.85507 -13.60898,25.32305c-0.17227,1.3043 -0.2461,2.43633 -0.2707,3.54375c-1.18125,-0.76289 -2.58398,-1.20586 -4.10977,-1.20586c-1.08281,0 -2.14102,0.19688 -3.27305,0.66445c5.14336,-11.83711 9.47461,-24.28945 9.47461,-32.70586v-1.77187c-0.02461,-12.52617 -0.02461,-15.4793 8.53945,-19.78594c15.92227,-7.94883 16.66055,-17.52187 16.66055,-35.14219v-15.15937c4.82344,-1.52578 12.28008,-4.57734 18.97383,-10.13906M195.27539,153.68555c0.39375,1.15664 0.86133,2.28868 1.40273,3.3961c4.79883,10.13906 4.92188,12.91992 4.92188,13.01836c0,3.46992 -2.83008,6.3 -6.3,6.3c-3.46992,0 -6.3,-2.83008 -6.3,-6.3c0,-0.09844 0.12305,-2.8793 4.92188,-13.01836c0.5168,-1.08281 0.95977,-2.19023 1.35352,-3.3961M245.7,6.3c-7.67812,19.6875 -31.5,24.11719 -31.5,24.11719c0,0 0,15.77461 0,19.98281c0,17.10352 -0.59062,23.23125 -13.19062,29.53125c-12.57539,6.27539 -12.00938,12.99375 -12.00938,27.16875c0,13.60898 -14.42109,43.60781 -25.2,62.40938c0.54141,-0.95977 1.77188,-1.8457 2.53477,-2.6332c0.98438,-0.98437 1.94414,-1.96875 2.9039,-2.95312c1.87031,-1.91953 3.76524,-3.83906 5.63555,-5.75859c2.85469,-2.90391 5.63555,-5.90625 8.51484,-8.78555c0.66445,-0.66445 3.88828,-3.9375 5.73398,-3.9375c0.56602,0 1.0336,0.31992 1.20586,1.15664c0.04922,0.19688 0.02461,0.41836 0,0.63985c-0.41836,2.43633 -1.00899,4.87265 -2.0918,7.13672c-2.8793,6.05391 -5.53711,12.52618 -5.53711,15.72539c0,6.96445 5.63555,12.6 12.6,12.6c6.96445,0 12.6,-5.63555 12.6,-12.6c0,-3.19922 -2.65781,-9.67148 -5.53711,-15.72539c-1.89492,-4.01132 -2.85469,-8.36719 -2.85469,-12.79687v-0.88594c0,-1.03359 0.09844,-2.04257 0.22148,-3.05156c2.01797,-11.41875 11.12344,-20.57344 14.07656,-24.43711c8.46562,-11.34492 15.57773,-21.31172 20.25352,-30.73711c13.41211,-27.14414 11.64023,-50.08008 11.64023,-76.16602z" fill="#000000"></path><path d="M32.90273,242.64844l-22.14844,-22.14844l80.5957,-80.5957l31.00781,31.00781c-24.48633,66.54375 -72.94219,71.76094 -87.31406,71.76094c0,0 -1.62422,0 -2.14102,-0.02461z" fill="#ffffff"></path><path d="M91.35,144.3586l27.34102,27.34101c-23.99414,62.85235 -69.93985,67.82344 -83.64727,67.82344c-0.29531,0 -0.56602,0 -0.81211,0l-19.02305,-19.02305l76.1414,-76.1414M91.35,135.45l-85.05,85.05l25.2,25.2c0,0 1.27969,0.12305 3.54375,0.12305c13.97813,0 65.83008,-4.92187 90.95625,-75.72305z" fill="#000000"></path><path d="M94.5,176.4c0,3.46992 -2.83008,6.3 -6.3,6.3c-3.46992,0 -6.3,-2.83008 -6.3,-6.3c0,-3.46992 2.83008,-6.3 6.3,-6.3c3.46992,0 6.3,2.83008 6.3,6.3z" fill="#ffffff"></path><path d="M56.7,214.2c0,3.46992 -2.83008,6.3 -6.3,6.3c-3.46992,0 -6.3,-2.83008 -6.3,-6.3c0,-3.46992 2.83008,-6.3 6.3,-6.3c3.46992,0 6.3,2.83008 6.3,6.3z" fill="#ffffff"></path><path d="M131.36485,126.91055c-1.23047,-1.20586 -3.22383,-1.20586 -4.4543,0c-1.23047,1.23047 -1.23047,3.24844 0,4.47891c1.23047,1.20586 3.22383,1.20586 4.4543,0c1.23047,-1.23047 1.23047,-3.24844 0,-4.47891z" fill="#000000"></path></g></g></g></svg>