<svg xmlns="http://www.w3.org/2000/svg" x="0px" y="0px"
     width="50" height="50"
     viewBox="0 0 252 252"
     style="fill:#000000;"><g fill="none" fill-rule="nonzero" stroke="none" stroke-width="1" stroke-linecap="butt" stroke-linejoin="miter" stroke-miterlimit="10" stroke-dasharray="" stroke-dashoffset="0" font-family="none" font-weight="none" font-size="none" text-anchor="none" style="mix-blend-mode: normal"><path d="M0,252v-252h252v252z" fill="none"></path><g><g id="surface1"><path d="M100.8,197.58867c-13.9043,-11.09882 -97.65,-79.61132 -97.65,-117.26367c0,-28.66992 24.01875,-51.975 53.55,-51.975c16.43906,0 31.96758,7.97344 41.54063,21.36094l2.55938,3.56836l2.55938,-3.56836c9.6961,-13.58438 24.85547,-21.36094 41.54063,-21.36094c29.53125,0 53.55,23.30508 53.55,51.975c0,37.67695 -83.7457,106.16485 -97.65,117.26367z" fill="#ffffff"></path><path d="M144.9,31.5c27.78398,0 50.4,21.90235 50.4,48.825c0,31.18008 -64.87031,89.57812 -94.5,113.25235c-29.62969,-23.67422 -94.5,-82.07227 -94.5,-113.25235c0,-26.92265 22.61602,-48.825 50.4,-48.825c15.43008,0 29.99883,7.48125 38.98125,20.03203l5.11875,7.16132l5.11875,-7.16132c9.10547,-12.72305 23.32969,-20.03203 38.98125,-20.03203M144.9,25.2c-18.26015,0 -34.01015,8.56406 -44.1,22.66523c-10.08984,-14.10117 -26.45508,-22.66523 -44.1,-22.66523c-31.5,0 -56.7,24.51094 -56.7,55.125c0,42.86953 100.8,121.275 100.8,121.275c0,0 100.8,-78.40547 100.8,-121.275c0,-30.61406 -25.2,-55.125 -56.7,-55.125z" fill="#000000"></path><path d="M147.16406,222.88711c-9.7207,-12.55078 -62.26172,-82.12148 -55.19883,-111.70195c4.42969,-19.09687 21.85313,-32.43516 42.35274,-32.43516c3.34688,0 6.69375,0.36914 9.9914,1.08281c12.91992,3.29766 23.13281,12.00937 28.64531,24.53555l1.67344,3.76524l3.19922,-2.58399c8.19492,-6.64453 17.98945,-10.16367 28.30078,-10.16367c3.12539,0 6.27539,0.34453 9.37617,1.00898c23.03438,5.58633 37.5293,28.35 32.23828,50.69531c-7.06289,30.12188 -86.15742,68.93086 -100.57852,75.79688z" fill="#ffffff"></path><path d="M134.34258,81.9c3.10078,0 6.22617,0.34453 9.08086,0.95977c12.0832,3.07617 21.5332,11.14805 26.65195,22.76367l3.34688,7.55508l6.39844,-5.19258c7.6289,-6.20156 16.73438,-9.45 26.30742,-9.45c2.90391,0 5.85703,0.29531 8.56406,0.88594c21.43477,5.21719 34.8961,26.2582 29.99883,46.93008c-5.80781,24.78164 -67.89727,58.96406 -96.5918,72.62227c-19.24453,-24.90469 -58.86562,-82.78594 -53.05781,-107.1c4.08515,-17.66953 20.25351,-29.97422 39.30117,-29.97422M134.34258,75.6c-21.31172,0 -40.55625,13.80586 -45.42891,34.84687c-8.19492,34.28086 57.33985,116.35313 57.33985,116.35313c0,0 96.37031,-44.1 104.56523,-78.99609c5.66016,-23.8957 -9.45,-48.38203 -34.65,-54.50977c-3.37148,-0.71367 -6.74297,-1.0582 -10.06523,-1.0582c-10.97578,0 -21.55781,3.78985 -30.26953,10.85273c-5.66015,-12.8707 -16.36523,-22.66523 -30.86015,-26.33203c-3.56836,-0.7875 -7.13672,-1.15664 -10.63125,-1.15664z" fill="#000000"></path></g></g></g></svg>