<svg xmlns="http://www.w3.org/2000/svg" x="0px" y="0px"
     width="50" height="50"
     viewBox="0 0 252 252"
     style="fill:#000000;"><g fill="none" fill-rule="nonzero" stroke="none" stroke-width="1" stroke-linecap="butt" stroke-linejoin="miter" stroke-miterlimit="10" stroke-dasharray="" stroke-dashoffset="0" font-family="none" font-weight="none" font-size="none" text-anchor="none" style="mix-blend-mode: normal"><path d="M0,252v-252h252v252z" fill="none"></path><g><g id="surface1"><path d="M224.83125,147.2625c-10.26211,-3.46992 -46.33945,-17.02969 -73.48359,-44.07539c-27.48868,-27.39023 -33.46875,-68.09414 -34.57618,-78.38086c3.54375,-0.98437 11.00039,-2.68242 20.7457,-2.68242c16.73438,0 41.71289,5.02031 65.6086,28.91602c37.38164,37.38164 25.49531,84.45937 21.70547,96.22265z" fill="#ffffff"></path><path d="M137.51719,25.27383c16.14375,0 40.23633,4.84805 63.39375,27.98086c33.91172,33.93633 26.2336,75.13242 21.92695,89.97188c-12.8461,-4.62656 -44.71523,-17.81719 -69.25078,-42.2789c-24.80625,-24.70781 -31.64765,-60.68672 -33.3457,-73.77891c3.81445,-0.88594 9.86836,-1.89492 17.27578,-1.89492M137.51719,18.97383c-14.54414,0 -24.11719,3.56836 -24.11719,3.56836c0,0 2.92852,50.20313 35.73281,82.88438c32.8043,32.68125 77.66719,45.77344 77.66719,45.77344c0,0 23.45273,-57.4875 -21.43477,-102.39961c-24.38789,-24.36328 -49.90781,-29.82656 -67.84805,-29.82656z" fill="#000000"></path><path d="M218.08828,236.25c-22.34531,0 -69.27539,-32.48437 -119.55235,-82.73672c-29.4082,-29.3836 -53.50078,-58.39805 -67.87265,-81.70312c-14.4457,-23.45274 -18.58008,-40.18711 -11.66485,-47.10235c4.42969,-4.42969 15.72539,-7.875 20.15508,-8.95781c59.72695,0.04922 89.79961,8.88398 139.04297,58.15195c49.19414,49.16953 58.0043,79.21758 58.05352,138.96914c-1.03359,4.42969 -4.38047,15.70078 -8.83477,20.15507c-2.16562,2.16563 -5.21719,3.22383 -9.32695,3.22383z" fill="#cccccc"></path><path d="M39.52266,18.9c58.52109,0.07383 88.07695,8.85938 136.45898,57.2168c48.28359,48.3082 57.04453,77.83945 57.11836,136.38516c-1.18125,4.87265 -4.35586,14.74102 -7.89961,18.28477c-1.575,1.55039 -3.88828,2.31328 -7.11211,2.31328c-21.5332,0 -67.60195,-32.11523 -117.3375,-81.82617c-29.23594,-29.21133 -53.15625,-58.02891 -67.38047,-81.13711c-13.23984,-21.43477 -17.76797,-37.60312 -12.15703,-43.18945c3.4207,-3.44531 12.74765,-6.66914 18.30937,-8.04727M38.75977,12.6c0,0 -15.79922,3.69141 -22.00078,9.86836c-17.15273,17.15274 20.59805,74.36953 79.5375,133.25977c49.26797,49.21875 97.30547,83.67188 121.7918,83.67188c4.82344,0 8.73632,-1.3289 11.5664,-4.15898c6.20156,-6.22617 9.74531,-22.00078 9.74531,-22.00078c0,-61.08047 -9.59765,-92.18672 -58.96406,-141.57773c-50.20312,-50.20312 -80.96484,-59.0625 -141.67617,-59.0625z" fill="#000000"></path><path d="M216.5625,236.25c-28.59609,0 -78.55312,-30.73711 -124.30195,-76.51055c-28.49765,-28.47305 -51.53203,-58.91485 -64.89492,-85.73906c-12.67383,-25.39687 -15.11015,-44.83828 -6.64453,-53.2793c3.29765,-3.29766 8.24414,-4.9711 14.7164,-4.9711c28.5961,0 78.55312,30.73711 124.30195,76.51055c28.49765,28.47305 51.53203,58.91485 64.89492,85.73906c12.67383,25.42149 15.11016,44.83828 6.64453,53.2793c-3.29766,3.29765 -8.24414,4.97109 -14.71641,4.97109z" fill="#ffffff"></path><path d="M35.46211,18.9c27.36563,0 77.54414,31.08164 122.0625,75.57539c28.25156,28.25156 51.08906,58.42265 64.3043,84.92695c11.83711,23.77265 14.54414,42.32813 7.23515,49.66172c-2.68242,2.68242 -6.89062,4.03594 -12.50156,4.03594c-27.39023,0 -77.56875,-31.08164 -122.08711,-75.57539c-28.25156,-28.25156 -51.08906,-58.42265 -64.3043,-84.92695c-11.83711,-23.77266 -14.54414,-42.32812 -7.23516,-49.66172c2.68242,-2.68242 6.89063,-4.03594 12.52617,-4.03594M35.4375,12.6c-7.16133,0 -12.96914,1.89492 -16.95586,5.88164c-19.85977,19.88438 12.15703,84.11484 71.53945,143.49727c47.44687,47.44688 97.99453,77.42109 126.5414,77.42109c7.16133,0 12.96914,-1.89492 16.95586,-5.88164c19.85977,-19.88438 -12.15703,-84.11484 -71.53945,-143.49726c-47.44688,-47.44688 -97.99453,-77.4211 -126.54141,-77.4211z" fill="#000000"></path><path d="M150.88008,94.81992c-4.9957,-4.97109 -10.28672,-7.75195 -11.83711,-6.17695c-1.575,1.55039 1.20586,6.8414 6.17695,11.83711c4.9957,4.97109 10.28672,7.75195 11.83711,6.17695c1.575,-1.55039 -1.20586,-6.84141 -6.17695,-11.83711z" fill="#000000"></path><path d="M100.48008,145.21992c-4.9957,-4.97109 -10.28672,-7.75195 -11.83711,-6.17695c-1.575,1.55039 1.20586,6.8414 6.17695,11.83711c4.9957,4.97109 10.28672,7.75195 11.83711,6.17695c1.575,-1.55039 -1.20586,-6.84141 -6.17695,-11.83711z" fill="#000000"></path><path d="M207.9,201.6c-4.97109,-4.9957 -10.28672,-7.75195 -11.83711,-6.20156c-1.55039,1.55039 1.20586,6.86602 6.20156,11.83711c4.97109,4.9711 10.26211,7.75195 11.83711,6.20156c1.55039,-1.575 -1.23047,-6.86601 -6.20156,-11.83711z" fill="#000000"></path><path d="M50.08008,44.41992c-4.9957,-4.97109 -10.28672,-7.75195 -11.83711,-6.17695c-1.575,1.55039 1.20586,6.8414 6.17695,11.83711c4.9957,4.97109 10.28672,7.75195 11.83711,6.17695c1.575,-1.55039 -1.20586,-6.84141 -6.17695,-11.83711z" fill="#000000"></path><path d="M94.18008,50.71992c-4.9957,-4.97109 -10.28672,-7.75195 -11.83711,-6.17695c-1.575,1.55039 1.20586,6.8414 6.17695,11.83711c4.9957,4.97109 10.28672,7.75195 11.83711,6.17695c1.575,-1.55039 -1.20586,-6.84141 -6.17695,-11.83711z" fill="#000000"></path><path d="M194.95547,151.51992c-4.9711,-4.97109 -10.26211,-7.75195 -11.8125,-6.17695c-1.575,1.55039 1.20586,6.8414 6.17695,11.83711c4.9957,4.97109 10.28672,7.75195 11.83711,6.17695c1.575,-1.55039 -1.20586,-6.84141 -6.20156,-11.83711z" fill="#000000"></path><path d="M56.38008,88.51992c-4.9957,-4.97109 -10.28672,-7.75195 -11.83711,-6.17695c-1.575,1.55039 1.20586,6.8414 6.17695,11.83711c4.9957,4.97109 10.28672,7.75195 11.83711,6.17695c1.575,-1.55039 -1.20586,-6.84141 -6.17695,-11.83711z" fill="#000000"></path><path d="M157.15547,189.31992c-4.9711,-4.97109 -10.26211,-7.75195 -11.8125,-6.17695c-1.575,1.55039 1.20586,6.8414 6.17695,11.83711c4.9957,4.97109 10.28672,7.75195 11.83711,6.17695c1.575,-1.55039 -1.20586,-6.84141 -6.20156,-11.83711z" fill="#000000"></path><path d="M166.18711,173.25c-12.0832,0 -34.30547,-13.75664 -53.99297,-33.44414c-26.82422,-26.84882 -38.26758,-52.81172 -31.72148,-59.35781c1.13203,-1.13203 2.92851,-1.69805 5.34023,-1.69805c12.10781,0 34.30547,13.75664 53.99297,33.44414c26.84883,26.84883 38.26758,52.81172 31.7461,59.35781c-1.13203,1.13203 -2.95312,1.69805 -5.36485,1.69805z" fill="#cccccc"></path><path d="M85.81289,81.9c9.57305,0 30.41719,11.17266 51.77812,32.50898c28.57148,28.5961 35.1914,51.4336 31.72148,54.90352c-0.49219,0.49219 -1.64883,0.7875 -3.12539,0.7875c-9.57305,0 -30.41719,-11.17265 -51.77812,-32.50898c-28.57148,-28.5961 -35.1914,-51.4336 -31.72148,-54.90352c0.49219,-0.49219 1.64883,-0.7875 3.12539,-0.7875M85.81289,75.6c-3.19922,0 -5.80781,0.86133 -7.57969,2.6332c-8.85937,8.85938 5.36484,37.43086 31.72148,63.81211c21.06562,21.06563 43.53398,34.35469 56.23242,34.35469c3.19922,0 5.80781,-0.86133 7.57969,-2.6332c8.85938,-8.85937 -5.36484,-37.43086 -31.72148,-63.81211c-21.06562,-21.06562 -43.53398,-34.35469 -56.23242,-34.35469z" fill="#000000"></path><path d="M100.8,86.57578v1.62422c-1.42734,7.97344 7.85039,24.90469 22.98516,40.01485c15.11015,15.13476 32.0414,24.43711 40.01484,22.98515h1.62422c-4.79883,-9.69609 -13.58437,-22.51758 -27.8332,-36.79102c-13.33828,-13.31367 -26.47969,-22.66523 -36.79102,-27.8332z" fill="#000000"></path></g></g></g></svg>