<svg xmlns="http://www.w3.org/2000/svg" x="0px" y="0px"
     width="50" height="50"
     viewBox="0 0 252 252"
     style="fill:#000000;"><g fill="none" fill-rule="nonzero" stroke="none" stroke-width="1" stroke-linecap="butt" stroke-linejoin="miter" stroke-miterlimit="10" stroke-dasharray="" stroke-dashoffset="0" font-family="none" font-weight="none" font-size="none" text-anchor="none" style="mix-blend-mode: normal"><path d="M0,252v-252h252v252z" fill="none"></path><g><g id="surface1"><path d="M100.8,242.55c-12.15703,0 -22.05,-9.89297 -22.05,-22.05v-34.65h94.5v34.65c0,12.15703 -9.89297,22.05 -22.05,22.05z" fill="#cccccc"></path><path d="M170.1,189v31.5c0,10.40977 -8.49023,18.9 -18.9,18.9h-50.4c-10.40977,0 -18.9,-8.49023 -18.9,-18.9v-31.5h88.2M176.4,182.7h-100.8v37.8c0,13.85508 11.34492,25.2 25.2,25.2h50.4c13.85508,0 25.2,-11.34492 25.2,-25.2z" fill="#000000"></path><path d="M91.35,211.05v-25.2h-22.05c-8.68711,0 -15.75,-7.06289 -15.75,-15.75v-15.43008l-1.15664,-0.95976c-15.72539,-12.94453 -24.04336,-30.61406 -24.04336,-51.11368c0,-49.6125 45.62578,-93.14648 97.65,-93.14648c52.02422,0 97.65,43.53398 97.65,93.14648c0,20.49961 -8.31797,38.19375 -24.04336,51.13828l-1.15664,0.93515v15.43008c0,8.68711 -7.06289,15.75 -15.75,15.75h-22.05v25.2z" fill="#ffffff"></path><path d="M126,12.6c50.35078,0 94.5,42.05742 94.5,89.99648c0,19.81055 -7.70273,36.20039 -22.91133,48.70195l-2.28867,1.89492v16.90664c0,6.93985 -5.66015,12.6 -12.6,12.6h-25.2v25.2h-63v-25.2h-25.2c-6.93984,0 -12.6,-5.66015 -12.6,-12.6l-0.02461,-13.95352v-2.97773l-2.28867,-1.87031c-15.18399,-12.52617 -22.88672,-28.8914 -22.88672,-48.70195c0,-47.93906 44.14922,-89.99648 94.5,-89.99648M126,6.3c-55.74023,0 -100.8,46.63477 -100.8,96.29648c0,22.76368 9.57305,40.70391 25.17539,53.55c0,4.50352 0.02461,13.95352 0.02461,13.95352c0,10.38516 8.51485,18.9 18.9,18.9h18.9v25.2h75.6v-25.2h18.9c10.38516,0 18.9,-8.51484 18.9,-18.9c0,0 0,-10.2375 0,-13.95352c15.62695,-12.84609 25.2,-30.78632 25.2,-53.55c0,-49.66172 -45.05977,-96.29648 -100.8,-96.29648z" fill="#000000"></path><path d="M119.7,195.3h12.6v12.6h-12.6z" fill="#cccccc"></path><path d="M144.9,195.3h12.6v12.6h-12.6z" fill="#cccccc"></path><path d="M94.5,195.3h12.6v12.6h-12.6z" fill="#cccccc"></path><path d="M119.7,214.2h12.6v12.6h-12.6z" fill="#000000"></path><path d="M144.9,214.2h12.6v12.6h-12.6z" fill="#000000"></path><path d="M94.5,214.2h12.6v12.6h-12.6z" fill="#000000"></path><path d="M126,157.5c0,0 -12.6,12.6 -12.6,18.9c0,3.46992 2.83008,6.3 6.3,6.3c3.46992,0 6.3,-2.83008 6.3,-6.3c0,-0.73828 0,-0.73828 0,0c0,3.46992 2.83008,6.3 6.3,6.3c3.46992,0 6.3,-2.83008 6.3,-6.3c0,-6.3 -12.6,-18.9 -12.6,-18.9z" fill="#000000"></path><path d="M185.85,135.45c0,13.92891 -11.27109,25.2 -25.2,25.2c-13.9289,0 -25.2,-11.27109 -25.2,-25.2c0,-13.9289 11.2711,-25.2 25.2,-25.2c13.92891,0 25.2,11.2711 25.2,25.2z" fill="#cccccc"></path><path d="M160.65,113.4c12.15703,0 22.05,9.89297 22.05,22.05c0,12.15703 -9.89297,22.05 -22.05,22.05c-12.15703,0 -22.05,-9.89297 -22.05,-22.05c0,-12.15703 9.89297,-22.05 22.05,-22.05M160.65,107.1c-15.65156,0 -28.35,12.69844 -28.35,28.35c0,15.65156 12.69844,28.35 28.35,28.35c15.65156,0 28.35,-12.69844 28.35,-28.35c0,-15.65156 -12.69844,-28.35 -28.35,-28.35z" fill="#000000"></path><path d="M116.55,135.45c0,13.92891 -11.27109,25.2 -25.2,25.2c-13.9289,0 -25.2,-11.27109 -25.2,-25.2c0,-13.9289 11.2711,-25.2 25.2,-25.2c13.92891,0 25.2,11.2711 25.2,25.2z" fill="#cccccc"></path><path d="M91.35,113.4c12.15703,0 22.05,9.89297 22.05,22.05c0,12.15703 -9.89297,22.05 -22.05,22.05c-12.15703,0 -22.05,-9.89297 -22.05,-22.05c0,-12.15703 9.89297,-22.05 22.05,-22.05M91.35,107.1c-15.65156,0 -28.35,12.69844 -28.35,28.35c0,15.65156 12.69844,28.35 28.35,28.35c15.65156,0 28.35,-12.69844 28.35,-28.35c0,-15.65156 -12.69844,-28.35 -28.35,-28.35z" fill="#000000"></path></g></g></g></svg>