<svg xmlns="http://www.w3.org/2000/svg" x="0px" y="0px"
     width="50" height="50"
     viewBox="0 0 252 252"
     style="fill:#000000;"><g fill="none" fill-rule="nonzero" stroke="none" stroke-width="1" stroke-linecap="butt" stroke-linejoin="miter" stroke-miterlimit="10" stroke-dasharray="" stroke-dashoffset="0" font-family="none" font-weight="none" font-size="none" text-anchor="none" style="mix-blend-mode: normal"><path d="M0,252v-252h252v252z" fill="none"></path><g><g id="surface1"><path d="M83.08125,154.35c-25.07695,0 -40.01484,-4.67578 -42.15586,-28.6207l0.02461,-43.8293c0.73828,-13.26445 5.09414,-15.43008 9.67148,-15.75c5.7832,0.19688 6.3,2.11641 7.82578,11.04961c0.29531,1.67344 0.61523,3.51914 1.00898,5.48789l6.74297,35.7082c1.96875,6.64453 4.97109,10.85273 13.43672,10.85273c0.76289,0 1.59961,-0.04922 2.48555,-0.12305l34.42852,0.02461v25.2z" fill="#ffffff"></path><path d="M50.52305,69.3c3.4207,0.12305 3.44531,0.36914 4.82344,8.41641c0.29531,1.72265 0.61524,3.59297 1.00899,5.5125l6.74297,35.75742l0.07383,0.31992l0.09844,0.31992c1.77187,5.95547 5.2418,12.77227 16.36523,12.77227c0.76289,0 1.59961,-0.02461 2.48555,-0.09844h31.27852v18.9h-30.31875c-24.24023,0 -36.96328,-3.96211 -38.98125,-25.49531v-43.63242c0.68906,-11.8125 4.03594,-12.57539 6.42305,-12.77227M50.4,63c-8.81015,0.63985 -11.96015,7.55508 -12.6,18.9c0,13.3875 0,44.1 0,44.1c2.51016,28.35 22.68985,31.5 45.28125,31.5h36.61875v-31.5h-37.8c-0.81211,0.07383 -1.575,0.09844 -2.26406,0.09844c-6.42305,0 -8.63789,-2.60859 -10.33594,-8.29336l-6.74297,-35.73281c-2.46094,-12.10781 -1.575,-18.70313 -12.15703,-19.07227z" fill="#000000"></path><path d="M135.45,135.45v-25.2h34.65c0.66445,0.04922 1.50117,0.09844 2.26406,0.09844c8.46563,0 11.44336,-4.2082 13.33828,-10.53281l6.8414,-36.07734c0.39375,-1.91953 0.71367,-3.76524 0.98438,-5.43868c1.52578,-8.9332 2.06719,-10.85273 8.17031,-11.04961c4.25742,0.31992 8.61328,2.48555 9.35156,15.92227v43.92773c-2.1164,23.67422 -17.0543,28.35 -42.13125,28.35z" fill="#ffffff"></path><path d="M201.47695,50.4c2.38711,0.19687 5.73398,0.95977 6.42305,12.77227v43.63242c-2.01797,21.5332 -14.74102,25.49531 -38.98125,25.49531h-30.31875v-18.9h31.27852c0.88594,0.07383 1.69805,0.09844 2.48555,0.09844c11.09883,0 14.59336,-6.8414 16.36523,-12.77227l0.09844,-0.31992l0.04922,-0.31992l6.74297,-35.65898c0.41836,-2.01797 0.73828,-3.88828 1.0336,-5.61094c1.37813,-8.04727 1.40273,-8.29336 4.82344,-8.41641M201.6,44.1c-10.58203,0.36914 -9.69609,6.96445 -12.15703,19.07227l-6.74297,35.73281c-1.69805,5.68477 -3.91289,8.29336 -10.33594,8.29336c-0.68906,0 -1.45195,-0.02461 -2.26406,-0.09844h-37.8v31.5h36.61875c22.59141,0 42.7711,-3.15 45.28125,-31.5c0,0 0,-30.7125 0,-44.1c-0.63984,-11.34492 -3.78984,-18.26015 -12.6,-18.9z" fill="#000000"></path><path d="M103.58086,236.25c-3.81445,-31.2293 -5.90625,-76.3875 -5.93086,-103.95c-0.04922,-58.47187 5.31563,-105.30352 5.36485,-105.77109c2.55937,-14.24883 10.36055,-17.07891 22.98515,-17.07891c12.91992,0 18.77695,0.66445 21.85313,16.68516c0.04922,0.29531 6.39844,47.74219 6.49687,106.16484c0.02461,15.03633 -0.34453,66.10078 -5.85703,103.95z" fill="#ffffff"></path><path d="M126,12.6c12.64922,0 16.11914,0.56602 18.72773,13.95352c0.41836,3.15 6.39844,49.26797 6.47227,105.74648c0.02461,14.61797 -0.31992,63.44297 -5.43867,100.8h-39.375c-3.61758,-30.9832 -5.56172,-74.17265 -5.58633,-100.8c-0.04922,-56.33086 4.94648,-101.88281 5.31562,-105.22969c2.04258,-11.07422 6.71836,-14.47031 19.88438,-14.47031M126,6.3c-13.9289,0 -23.20664,3.71602 -26.11055,19.85977c0,0 -5.43867,46.80703 -5.38945,106.14023c0.02461,29.30977 2.26406,75.91992 6.3,107.1h50.4c4.89727,-31.64765 6.34922,-76.80586 6.3,-107.1c-0.09844,-59.35781 -6.54609,-106.75547 -6.54609,-106.75547c-3.49453,-18.01406 -11.025,-19.24453 -24.95391,-19.24453z" fill="#000000"></path><path d="M42.57422,242.55c13.43672,-7.23515 41.58984,-18.9 83.42578,-18.9c41.83594,0 69.98906,11.66485 83.42578,18.9z" fill="#ffffff"></path><path d="M126,226.8c30.83555,0 54.0668,6.42305 69.27539,12.6h-138.55078c15.2332,-6.17695 38.43985,-12.6 69.27539,-12.6M126,220.5c-62.36015,0 -94.5,25.2 -94.5,25.2h189c0,0 -32.13984,-25.2 -94.5,-25.2z" fill="#000000"></path></g></g></g></svg>